<svg width="2068" height="2068" viewBox="0 0 2068 2068" fill="none" xmlns="http://www.w3.org/2000/svg">
<g clip-path="url(#clip0_202_3)">
<path d="M927.571 67.5071L798.344 5.71952L687.904 146.344L724.025 271.255L849.953 307.189L990.567 196.748L927.571 67.5071Z" fill="#B3B3B3"/>
<path d="M2000.57 1760.51L1871.34 1698.72L1760.9 1839.34L1797.02 1964.25L1922.95 2000.19L2063.57 1889.75L2000.57 1760.51Z" fill="#B3B3B3"/>
<path d="M279.571 1331.51L150.344 1269.72L39.9044 1410.34L76.0248 1535.25L201.953 1571.19L342.567 1460.75L279.571 1331.51Z" fill="#B3B3B3"/>
<path d="M974.178 194.752L916.916 78.0659L734.483 260.499L847.782 292.976L974.178 194.752Z" fill="#515050"/>
<path d="M2047.18 1887.75L1989.92 1771.07L1807.48 1953.5L1920.78 1985.98L2047.18 1887.75Z" fill="#515050"/>
<path d="M326.178 1458.75L268.916 1342.07L86.4825 1524.5L199.782 1556.98L326.178 1458.75Z" fill="#515050"/>
<path d="M801.814 23.463L702.481 148.75L734.483 260.499L916.916 78.0659L801.815 23.463L801.814 23.463Z" fill="#838383"/>
<path d="M1874.81 1716.46L1775.48 1841.75L1807.48 1953.5L1989.92 1771.07L1874.82 1716.46L1874.81 1716.46Z" fill="#838383"/>
<path d="M153.814 1287.46L54.4807 1412.75L86.4827 1524.5L268.916 1342.07L153.815 1287.46L153.814 1287.46Z" fill="#838383"/>
<path d="M842.682 198.969L807.922 186.466L783.015 161.558L741.816 179.341L719.633 157.969L908.841 85.547L842.682 198.97L842.682 198.969ZM846.001 191.082L867.055 127.647L808.156 151.783L825.38 169.007L846 191.083L846.001 191.082Z" fill="#F2F2F2"/>
<path d="M1915.68 1891.97L1880.92 1879.47L1856.01 1854.56L1814.82 1872.34L1792.63 1850.97L1981.84 1778.55L1915.68 1891.97L1915.68 1891.97ZM1919 1884.08L1940.06 1820.65L1881.16 1844.78L1898.38 1862.01L1919 1884.08L1919 1884.08Z" fill="#F2F2F2"/>
<path d="M194.682 1462.97L159.922 1450.47L135.015 1425.56L93.8159 1443.34L71.6335 1421.97L260.841 1349.55L194.682 1462.97L194.682 1462.97ZM198.001 1455.08L219.055 1391.65L160.156 1415.78L177.38 1433.01L198 1455.08L198.001 1455.08Z" fill="#F2F2F2"/>
<path d="M909.138 85.8441L867.253 128.047L845.696 189.788L825.491 169.583L808.005 186.977L835.918 214.943L819.003 257.974L839.841 279.591L909.138 85.8441Z" fill="#B3B3B3"/>
<path d="M1982.14 1778.84L1940.25 1821.05L1918.7 1882.79L1898.49 1862.58L1881 1879.98L1908.92 1907.94L1892 1950.97L1912.84 1972.59L1982.14 1778.84Z" fill="#B3B3B3"/>
<path d="M261.138 1349.84L219.253 1392.05L197.696 1453.79L177.49 1433.58L160.004 1450.98L187.918 1478.94L171.003 1521.97L191.841 1543.59L261.138 1349.84Z" fill="#B3B3B3"/>
<path d="M1245.37 389.546C1202.47 346.647 1154.21 341.286 1100.59 373.455C1138.13 368.094 1164.93 378.822 1181.02 405.63C1190.2 420.927 1190.07 438.555 1189.92 458.066C1189.69 489.845 1189.41 526.626 1229.28 566.5C1272.18 609.395 1320.44 614.76 1374.06 582.583C1336.53 587.948 1309.72 577.224 1293.63 550.412C1284.45 535.12 1284.59 517.492 1284.73 497.981C1284.97 466.201 1285.24 429.416 1245.37 389.546ZM1068.41 405.629C1025.52 362.734 977.255 357.369 923.634 389.546C961.168 384.181 987.981 394.905 1004.07 421.721C1013.24 437.018 1013.11 454.642 1012.97 474.149C1012.73 505.928 1012.46 542.717 1052.33 582.587C1095.23 625.486 1143.49 630.847 1197.11 598.674C1159.57 604.035 1132.76 593.311 1116.68 566.499C1107.49 551.206 1107.63 533.574 1107.77 514.067C1108.01 482.288 1108.29 445.503 1068.41 405.629Z" fill="#838383"/>
<path d="M2318.37 2082.55C2275.47 2039.65 2227.21 2034.29 2173.59 2066.46C2211.13 2061.09 2237.93 2071.82 2254.02 2098.63C2263.2 2113.93 2263.07 2131.55 2262.92 2151.07C2262.69 2182.85 2262.41 2219.63 2302.28 2259.5C2345.18 2302.4 2393.44 2307.76 2447.06 2275.58C2409.53 2280.95 2382.72 2270.22 2366.63 2243.41C2357.45 2228.12 2357.59 2210.49 2357.73 2190.98C2357.97 2159.2 2358.24 2122.42 2318.37 2082.55ZM2141.41 2098.63C2098.52 2055.73 2050.25 2050.37 1996.63 2082.55C2034.17 2077.18 2060.98 2087.9 2077.07 2114.72C2086.24 2130.02 2086.11 2147.64 2085.97 2167.15C2085.73 2198.93 2085.46 2235.72 2125.33 2275.59C2168.23 2318.49 2216.49 2323.85 2270.11 2291.67C2232.57 2297.03 2205.76 2286.31 2189.68 2259.5C2180.49 2244.21 2180.63 2226.57 2180.77 2207.07C2181.01 2175.29 2181.29 2138.5 2141.41 2098.63Z" fill="#838383"/>
<path d="M597.367 1653.55C554.468 1610.65 506.208 1605.29 452.588 1637.46C490.126 1632.09 516.935 1642.82 533.022 1669.63C542.202 1684.93 542.067 1702.55 541.923 1722.07C541.685 1753.85 541.411 1790.63 581.285 1830.5C624.18 1873.4 672.444 1878.76 726.064 1846.58C688.53 1851.95 661.717 1841.22 645.626 1814.41C636.45 1799.12 636.585 1781.49 636.729 1761.98C636.966 1730.2 637.237 1693.42 597.367 1653.55ZM420.414 1669.63C377.519 1626.73 329.255 1621.37 275.634 1653.55C313.168 1648.18 339.981 1658.9 356.068 1685.72C365.24 1701.02 365.109 1718.64 364.97 1738.15C364.732 1769.93 364.457 1806.72 404.327 1846.59C447.226 1889.49 495.486 1894.85 549.111 1862.67C511.573 1868.03 484.76 1857.31 468.677 1830.5C459.493 1815.21 459.632 1797.57 459.771 1778.07C460.009 1746.29 460.288 1709.5 420.414 1669.63Z" fill="#838383"/>
<path d="M1697.99 844.994L1742.82 889.825L1437.7 970.788L1518.66 665.672L1604.4 751.41L1585.98 822.511L1656.52 803.526L1697.99 844.994Z" fill="#838383"/>
<path d="M1049.99 2108.99L1094.82 2153.82L789.7 2234.79L870.664 1929.67L956.403 2015.41L937.978 2086.51L1008.52 2067.53L1049.99 2108.99Z" fill="#838383"/>
<path d="M1518.66 665.672L1437.7 970.788L1742.82 889.825L1697.99 844.994L1514.92 893.572L1562.93 709.942L1518.66 665.672Z" fill="#838383"/>
<path d="M870.664 1929.67L789.7 2234.79L1094.82 2153.82L1049.99 2108.99L866.916 2157.57L914.934 1973.94L870.664 1929.67Z" fill="#838383"/>
<path d="M1562.5 709.512L1514.35 893.287L1697.56 844.57L1656.09 803.1L1585.71 821.923L1603.97 750.982L1562.5 709.512Z" fill="#5C5C5C"/>
<path d="M914.505 1973.51L866.348 2157.29L1049.56 2108.57L1008.09 2067.1L937.711 2085.92L955.975 2014.98L914.505 1973.51Z" fill="#5C5C5C"/>
<path d="M1988.84 1325.45C2003.47 1310.82 1999.01 1278.65 1979.53 1241.97C2014.63 1219.82 2034.52 1194.17 2029.12 1174.19C2027.91 1169.55 2025.3 1165.32 2021.56 1161.59L2011.52 1171.62C2013.59 1173.69 2014.85 1175.76 2015.48 1177.92C2018.1 1187.55 2007.38 1203.58 1988.12 1218.7C1983.4 1222.43 1978.13 1226.08 1972.59 1229.63C1965.93 1218.65 1957.97 1207.36 1948.92 1196.15C1951.17 1181.75 1952.43 1167.89 1952.7 1154.93C1981.01 1155.96 2002.25 1162.26 2011.61 1171.62L2021.65 1161.59C2009.27 1149.21 1984.25 1141.83 1952.57 1140.75C1951.4 1109.15 1943.93 1084.22 1931.55 1071.84L1921.51 1081.88C1930.83 1091.2 1937.22 1112.44 1938.35 1140.66C1925.43 1140.97 1911.61 1142.19 1897.3 1144.53C1886.05 1135.44 1874.75 1127.47 1863.73 1120.86C1867.19 1115.32 1870.79 1110.19 1874.44 1105.46C1889.51 1086.16 1905.49 1075.4 1915.12 1077.92C1917.28 1078.46 1919.4 1079.86 1921.47 1081.93L1931.5 1071.89C1927.72 1068.11 1923.49 1065.5 1918.81 1064.24C1898.88 1058.88 1873.31 1078.78 1851.3 1113.83C1814.67 1094.48 1782.63 1090.07 1768.04 1104.65C1753.42 1119.28 1757.87 1151.46 1777.36 1188.14C1742.26 1210.28 1722.36 1235.93 1727.76 1255.92C1728.98 1260.55 1731.59 1264.78 1735.37 1268.56C1747.75 1280.94 1772.77 1288.32 1804.45 1289.4C1805.62 1321 1813.09 1345.93 1825.47 1358.31C1829.25 1362.09 1833.48 1364.7 1838.16 1365.96C1858.1 1371.31 1883.66 1351.42 1905.67 1316.36C1942.17 1335.67 1974.26 1340.03 1988.84 1325.45ZM1960.26 1236.84C1952.79 1240.98 1944.74 1244.89 1936.41 1248.54C1938.17 1243.09 1939.83 1237.56 1941.32 1231.84C1942.85 1226.17 1944.15 1220.45 1945.37 1214.83C1950.81 1222.16 1955.81 1229.5 1960.26 1236.84ZM1891.72 1264.15C1882.13 1266.72 1872.77 1268.88 1863.68 1270.5C1856.39 1264.38 1849.28 1257.9 1842.44 1251.06C1835.64 1244.26 1829.16 1237.15 1823.04 1229.95C1824.66 1220.86 1826.73 1211.5 1829.25 1201.96C1831.73 1192.64 1834.61 1183.55 1837.8 1174.68C1846.62 1171.44 1855.81 1168.56 1865.08 1166.04C1874.66 1163.48 1884.02 1161.32 1893.11 1159.7C1900.41 1165.82 1907.52 1172.3 1914.36 1179.14C1921.15 1185.93 1927.63 1193.04 1933.75 1200.25C1932.13 1209.34 1930.06 1218.7 1927.54 1228.24C1925.07 1237.56 1922.19 1246.65 1918.99 1255.51C1910.13 1258.71 1900.99 1261.63 1891.72 1264.15ZM1912.11 1272.84C1908.51 1281.3 1904.55 1289.4 1900.41 1296.96C1893.07 1292.51 1885.64 1287.51 1878.26 1282.02C1883.93 1280.76 1889.69 1279.41 1895.41 1277.84C1901.08 1276.3 1906.66 1274.59 1912.11 1272.84ZM1818.45 1275.22C1818.59 1266.72 1819.22 1257.72 1820.34 1248.31C1824.21 1252.54 1828.22 1256.82 1832.4 1261C1836.63 1265.23 1840.91 1269.33 1845.23 1273.2C1835.91 1274.41 1826.91 1275.04 1818.45 1275.22ZM1811.47 1215.23C1806.03 1207.9 1801.03 1200.56 1796.58 1193.22C1804.05 1189.08 1812.1 1185.17 1820.43 1181.52C1818.68 1186.97 1817.01 1192.5 1815.53 1198.22C1814.04 1203.94 1812.69 1209.61 1811.47 1215.23ZM1938.39 1154.83C1938.26 1163.34 1937.63 1172.34 1936.5 1181.75C1932.63 1177.52 1928.62 1173.24 1924.44 1169.06C1920.21 1164.83 1915.93 1160.73 1911.61 1156.86C1920.93 1155.65 1929.93 1155.02 1938.39 1154.83ZM1878.58 1148.04C1872.91 1149.3 1867.15 1150.65 1861.43 1152.22C1855.76 1153.75 1850.22 1155.42 1844.78 1157.18C1848.38 1148.71 1852.34 1140.61 1856.48 1133.05C1863.77 1137.55 1871.2 1142.55 1878.58 1148.04ZM1781.5 1163.66C1772.36 1140.93 1770.97 1121.71 1778.04 1114.65C1785.1 1107.58 1804.36 1108.93 1827.05 1118.11C1832.58 1120.32 1838.3 1123.06 1844.06 1126.03C1837.8 1137.42 1832 1149.97 1826.78 1163.57C1813.27 1168.79 1800.81 1174.59 1789.51 1180.85C1786.45 1175 1783.75 1169.24 1781.5 1163.66ZM1741.4 1252.18C1738.79 1242.55 1749.5 1226.53 1768.76 1211.41C1773.49 1207.67 1778.76 1204.03 1784.29 1200.47C1790.95 1211.45 1798.92 1222.75 1807.96 1233.95C1805.71 1248.36 1804.45 1262.22 1804.18 1275.18C1775.88 1274.14 1754.63 1267.84 1745.27 1258.48C1743.29 1256.41 1741.99 1254.3 1741.4 1252.18ZM1882.45 1324.64C1867.37 1343.95 1851.39 1354.7 1841.76 1352.18C1839.6 1351.64 1837.49 1350.25 1835.42 1348.18C1826.1 1338.86 1819.71 1317.62 1818.59 1289.4C1831.5 1289.09 1845.32 1287.87 1859.63 1285.53C1870.88 1294.62 1882.18 1302.59 1893.2 1309.2C1889.69 1314.78 1886.14 1319.96 1882.45 1324.64ZM1929.79 1311.95C1924.26 1309.74 1918.54 1307 1912.78 1304.03C1919.04 1292.64 1924.84 1280.09 1930.06 1266.49C1943.57 1261.27 1956.03 1255.47 1967.33 1249.21C1970.39 1255.06 1973.09 1260.82 1975.38 1266.45C1984.52 1289.18 1985.92 1308.39 1978.85 1315.46C1971.74 1322.48 1952.48 1321.13 1929.79 1311.95Z" fill="#838383"/>
<path d="M1857.83 1235.58C1869.19 1246.93 1887.61 1246.93 1898.97 1235.58C1910.32 1224.22 1910.32 1205.8 1898.97 1194.44C1887.61 1183.08 1869.19 1183.08 1857.83 1194.44C1846.47 1205.8 1846.47 1224.22 1857.83 1235.58Z" fill="#838383"/>
<path d="M638.841 -8.54895C653.468 -23.1758 649.013 -55.3547 629.525 -92.0342C664.63 -114.177 684.522 -139.83 679.121 -159.813C677.906 -164.448 675.296 -168.679 671.56 -172.414L661.524 -162.378C663.595 -160.308 664.855 -158.237 665.485 -156.077C668.095 -146.446 657.384 -130.424 638.121 -115.302C633.396 -111.567 628.13 -107.921 622.594 -104.366C615.934 -115.347 607.968 -126.644 598.922 -137.85C601.172 -152.252 602.432 -166.113 602.702 -179.075C631.011 -178.04 652.253 -171.739 661.614 -162.378L671.651 -172.414C659.274 -184.791 634.251 -192.172 602.567 -193.252C601.397 -224.846 593.926 -249.779 581.549 -262.155L571.513 -252.119C580.829 -242.803 587.22 -221.56 588.345 -193.342C575.429 -193.027 561.612 -191.812 547.3 -189.471C536.049 -198.562 524.752 -206.528 513.726 -213.144C517.191 -218.68 520.792 -223.811 524.437 -228.536C539.514 -247.843 555.491 -258.6 565.122 -256.08C567.283 -255.539 569.398 -254.144 571.468 -252.074L581.504 -262.11C577.724 -265.891 573.493 -268.501 568.813 -269.761C548.875 -275.117 523.312 -255.224 501.304 -220.165C464.67 -239.517 432.626 -243.928 418.044 -229.346C403.417 -214.719 407.873 -182.54 427.36 -145.861C392.256 -123.718 372.364 -98.065 377.764 -78.0825C378.979 -73.447 381.59 -69.2164 385.37 -65.436C397.747 -53.0594 422.77 -45.6785 454.454 -44.5984C455.624 -13.0045 463.095 11.9286 475.471 24.3051C479.252 28.0856 483.482 30.6959 488.163 31.9561C508.1 37.3117 533.663 17.4192 555.671 -17.6401C592.171 1.6673 624.26 6.03285 638.841 -8.54895ZM610.263 -97.1649C602.792 -93.0244 594.736 -89.1089 586.41 -85.4635C588.165 -90.9091 589.83 -96.4448 591.316 -102.161C592.846 -107.831 594.151 -113.547 595.366 -119.173C600.812 -111.837 605.807 -104.501 610.263 -97.1649ZM541.719 -69.8465C532.133 -67.2812 522.772 -65.1209 513.681 -63.5007C506.39 -69.6215 499.279 -76.1023 492.438 -82.9431C485.643 -89.739 479.162 -96.8498 473.041 -104.051C474.661 -113.142 476.731 -122.503 479.252 -132.044C481.727 -141.36 484.607 -150.451 487.803 -159.318C496.624 -162.558 505.805 -165.438 515.076 -167.959C524.662 -170.524 534.024 -172.684 543.115 -174.304C550.406 -168.184 557.516 -161.703 564.357 -154.862C571.153 -148.066 577.634 -140.955 583.755 -133.754C582.134 -124.663 580.064 -115.302 577.544 -105.761C575.069 -96.4448 572.188 -87.3537 568.993 -78.4876C560.127 -75.2922 550.991 -72.3668 541.719 -69.8465ZM562.107 -61.1605C558.507 -52.6994 554.546 -44.5984 550.406 -37.0375C543.07 -41.493 535.644 -46.4886 528.263 -51.9793C533.934 -53.2395 539.694 -54.5896 545.41 -56.1648C551.081 -57.695 556.661 -59.4052 562.107 -61.1605ZM468.45 -58.7751C468.585 -67.2812 469.216 -76.2823 470.341 -85.6885C474.211 -81.458 478.217 -77.1824 482.402 -72.9969C486.633 -68.7664 490.908 -64.6709 495.229 -60.8004C485.913 -59.5852 476.911 -58.9552 468.45 -58.7751ZM461.475 -118.768C456.029 -126.103 451.033 -133.439 446.578 -140.775C454.049 -144.916 462.105 -148.831 470.431 -152.477C468.675 -147.031 467.01 -141.495 465.525 -135.78C464.04 -130.064 462.69 -124.393 461.475 -118.768ZM588.39 -179.165C588.255 -170.659 587.625 -161.658 586.5 -152.252C582.63 -156.482 578.624 -160.758 574.439 -164.943C570.208 -169.174 565.932 -173.269 561.612 -177.14C570.928 -178.355 579.929 -178.985 588.39 -179.165ZM528.578 -185.961C522.907 -184.701 517.146 -183.351 511.431 -181.775C505.76 -180.245 500.224 -178.58 494.779 -176.825C498.379 -185.286 502.34 -193.387 506.48 -200.948C513.771 -196.447 521.197 -191.452 528.578 -185.961ZM431.501 -170.344C422.365 -193.072 420.97 -212.289 428.035 -219.355C435.101 -226.421 454.364 -225.071 477.047 -215.89C482.582 -213.684 488.298 -210.939 494.059 -207.969C487.803 -196.582 481.997 -184.026 476.776 -170.434C463.275 -165.213 450.808 -159.408 439.512 -153.152C436.451 -159.003 433.751 -164.763 431.501 -170.344ZM391.401 -81.818C388.791 -91.4492 399.502 -107.471 418.764 -122.593C423.49 -126.328 428.756 -129.974 434.291 -133.529C440.952 -122.548 448.918 -111.252 457.964 -100.045C455.714 -85.6435 454.454 -71.7818 454.184 -58.8202C425.875 -59.8553 404.633 -66.1561 395.271 -75.5172C393.291 -77.5875 391.986 -79.7027 391.401 -81.818ZM532.448 -9.35905C517.371 9.94833 501.394 20.7047 491.763 18.1843C489.603 17.6443 487.488 16.2491 485.418 14.1788C476.101 4.8627 469.711 -16.3799 468.585 -44.5984C481.502 -44.9134 495.319 -46.1286 509.631 -48.4689C520.882 -39.3777 532.178 -31.4118 543.205 -24.796C539.694 -19.2153 536.139 -14.0396 532.448 -9.35905ZM579.794 -22.0506C574.259 -24.2559 568.543 -27.0012 562.782 -29.9716C569.038 -41.358 574.844 -53.9146 580.064 -67.5062C593.566 -72.7269 606.032 -78.5326 617.329 -84.7884C620.389 -78.9376 623.09 -73.1769 625.385 -67.5512C634.521 -44.8234 635.916 -25.6061 628.85 -18.5402C621.739 -11.5193 602.477 -12.8695 579.794 -22.0506Z" fill="#838383"/>
<mask id="mask0_202_3" style="mask-type:luminance" maskUnits="userSpaceOnUse" x="301" y="295" width="415" height="416">
<path d="M508.208 295.855L715.391 503.037L508.207 710.221L301.025 503.039L508.208 295.855Z" fill="white"/>
</mask>
<g mask="url(#mask0_202_3)">
<path d="M956.256 907.004L920.311 871.059L916.497 874.872C927.741 886.115 927.139 890.332 912.882 904.589L887.176 930.295C872.919 944.552 868.502 945.36 857.256 934.114C849.831 924.277 848.621 913.832 849.426 896.963L850.23 877.687C864.889 887.923 879.345 886.72 888.182 877.883C899.224 866.841 898.223 848.971 880.551 831.299L845.209 795.957L841.396 799.77C852.639 811.014 852.037 815.231 837.781 829.488L812.074 855.194C797.818 869.45 793.399 870.257 782.154 859.012L778.339 862.827L818.299 902.786L822.114 898.972C810.872 887.73 811.675 883.308 825.932 869.051L833.157 861.826L836.572 865.24L830.952 915.44L889.388 973.875C918.102 1002.59 945.814 999.783 964.09 981.507C982.361 963.229 984.972 935.72 956.256 907.004ZM839.39 855.596L866.094 828.892L874.326 837.124C883.361 846.159 881.154 856.401 873.925 863.63C866.896 870.659 856.655 872.865 847.62 863.83L839.39 855.596ZM896.216 968.251L894.809 966.844C887.582 959.617 888.381 956.808 897.619 947.57L941.196 903.994L950.834 913.632C971.718 934.516 960.27 953.587 948.421 965.436C936.175 977.685 917.098 989.133 896.216 968.251ZM693.202 724.275L748.025 697.16C763.89 689.331 765.495 684.114 752.641 671.261L756.659 667.243L794.41 704.994L790.393 709.012C777.744 696.363 771.721 696.36 752.043 706L660.471 751.784L657.862 749.174L700.231 665.836L616.496 707.808L613.883 705.195L660.27 614.231C670.11 594.752 669.907 588.53 658.259 576.882L662.277 572.864L706.856 617.444L702.839 621.461C690.988 609.611 684.965 609.209 676.737 625.875L649.221 680.297L729.746 640.333L733.564 644.151L693.202 724.275ZM732.159 821.861C710.071 799.774 708.262 765.437 728.144 745.554C747.824 725.874 782.163 727.682 804.25 749.77C826.338 771.857 828.145 806.196 808.466 825.876C788.583 845.758 754.248 843.95 732.159 821.861ZM798.021 755.999C779.548 737.527 756.456 747.761 743.402 760.815C730.146 774.071 720.11 796.965 738.583 815.437C757.259 834.114 780.15 824.075 793.406 810.819C806.46 797.765 816.697 774.676 798.021 755.999Z" fill="#848484"/>
<path d="M419.344 414.169C384.167 449.347 374.212 500.186 389.448 544.236L463.205 385.697C446.743 391.994 431.797 401.697 419.344 414.169ZM572.689 558.545C583.672 547.562 587.333 536.011 589.869 526.707C592.685 514.882 594.663 504.463 601.984 497.142C610.153 488.973 623.951 487.563 632.678 496.29C633.072 496.684 633.397 497.107 633.76 497.514C632.433 467.217 620.212 437.309 597.076 414.173C566.03 383.126 522.786 371.741 482.769 379.978C484.792 382.125 486.716 384.134 488.383 385.801C497.679 395.097 513.195 408.357 513.195 408.357C518.268 412.866 511.797 420.467 506.447 416.249C506.447 416.249 501.064 412 495.426 406.923L431.529 535.545L509.306 496.667L533.392 444.886C528.888 439.82 524.92 434.72 524.92 434.72C520.412 429.65 528.296 422.89 532.802 427.961C532.802 427.961 546.35 443.765 555.082 452.497C564.376 461.791 579.894 475.053 579.894 475.053C584.971 479.565 578.497 487.164 573.144 482.943C573.144 482.943 567.753 478.685 562.125 473.619L498.71 601.264L537.194 580.506C553.329 572.058 565.081 566.153 572.689 558.545Z" fill="#848484"/>
<path d="M501.997 512.369L397.857 563.183C403.606 573.737 410.84 583.412 419.339 591.91C429.688 602.259 441.403 610.392 453.887 616.383C454.027 615.748 454.225 615.126 454.479 614.527L501.997 512.369ZM628.826 538.378C626.377 541.591 623.553 544.848 620.286 548.115C611.268 557.133 599.447 565.586 581.698 573.189L476.069 624.527C517.896 635.54 564.29 624.688 597.076 591.901C612.002 577.022 622.924 558.611 628.826 538.378Z" fill="#848484"/>
<path d="M611.801 399.448C554.682 342.328 461.739 342.325 404.619 399.444C347.493 456.571 347.494 549.512 404.616 606.633C461.734 663.751 554.682 663.763 611.81 606.635C668.928 549.514 668.919 456.566 611.801 399.448ZM409.366 601.883C354.865 547.383 354.865 458.698 409.369 404.194C463.868 349.696 552.548 349.697 607.05 404.199C661.548 458.698 661.548 547.376 607.05 601.875C552.546 656.379 463.863 656.38 409.366 601.883Z" fill="#848484"/>
</g>
<mask id="mask1_202_3" style="mask-type:luminance" maskUnits="userSpaceOnUse" x="1632" y="-299" width="415" height="416">
<path d="M1839.21 -298.145L2046.39 -90.9627L1839.21 116.221L1632.02 -90.9611L1839.21 -298.145Z" fill="white"/>
</mask>
<g mask="url(#mask1_202_3)">
<path d="M2287.26 313.004L2251.31 277.059L2247.5 280.872C2258.74 292.115 2258.14 296.332 2243.88 310.589L2218.18 336.295C2203.92 350.552 2199.5 351.36 2188.26 340.114C2180.83 330.277 2179.62 319.832 2180.43 302.963L2181.23 283.687C2195.89 293.923 2210.34 292.721 2219.18 283.883C2230.22 272.841 2229.22 254.971 2211.55 237.299L2176.21 201.957L2172.4 205.77C2183.64 217.014 2183.04 221.231 2168.78 235.488L2143.07 261.194C2128.82 275.451 2124.4 276.257 2113.15 265.012L2109.34 268.827L2149.3 308.787L2153.11 304.972C2141.87 293.73 2142.68 289.308 2156.93 275.052L2164.16 267.826L2167.57 271.24L2161.95 321.44L2220.39 379.875C2249.1 408.59 2276.81 405.783 2295.09 387.507C2313.36 369.229 2315.97 341.72 2287.26 313.004ZM2170.39 261.596L2197.09 234.892L2205.33 243.124C2214.36 252.159 2212.15 262.401 2204.93 269.63C2197.9 276.66 2187.66 278.865 2178.62 269.83L2170.39 261.596ZM2227.22 374.251L2225.81 372.844C2218.58 365.617 2219.38 362.808 2228.62 353.57L2272.2 309.994L2281.83 319.632C2302.72 340.516 2291.27 359.587 2279.42 371.436C2267.18 383.685 2248.1 395.133 2227.22 374.251ZM2024.2 130.275L2079.02 103.16C2094.89 95.3307 2096.49 90.1141 2083.64 77.2609L2087.66 73.2432L2125.41 110.994L2121.39 115.012C2108.74 102.364 2102.72 102.36 2083.04 112L1991.47 157.784L1988.86 155.175L2031.23 71.8363L1947.5 113.808L1944.88 111.196L1991.27 20.2309C2001.11 0.752538 2000.91 -5.47028 1989.26 -17.1177L1993.28 -21.1355L2037.86 23.4438L2033.84 27.4616C2021.99 15.6112 2015.96 15.2087 2007.74 31.875L1980.22 86.2975L2060.75 46.3329L2064.56 50.1511L2024.2 130.275ZM2063.16 227.861C2041.07 205.774 2039.26 171.437 2059.14 151.554C2078.82 131.875 2113.16 133.682 2135.25 155.77C2157.34 177.857 2159.15 212.196 2139.47 231.876C2119.58 251.758 2085.25 249.951 2063.16 227.861ZM2129.02 161.999C2110.55 143.527 2087.46 153.761 2074.4 166.815C2061.15 180.071 2051.11 202.965 2069.58 221.437C2088.26 240.114 2111.15 230.075 2124.41 216.819C2137.46 203.765 2147.7 180.676 2129.02 161.999Z" fill="#848484"/>
<path d="M1750.34 -179.831C1715.17 -144.653 1705.21 -93.8139 1720.45 -49.7639L1794.2 -208.303C1777.74 -202.006 1762.8 -192.303 1750.34 -179.831ZM1903.69 -35.4548C1914.67 -46.4377 1918.33 -57.9888 1920.87 -67.2926C1923.68 -79.1176 1925.66 -89.5374 1932.98 -96.8576C1941.15 -105.027 1954.95 -106.437 1963.68 -97.7099C1964.07 -97.3159 1964.4 -96.8932 1964.76 -96.4856C1963.43 -126.783 1951.21 -156.691 1928.08 -179.827C1897.03 -210.874 1853.79 -222.259 1813.77 -214.022C1815.79 -211.875 1817.72 -209.866 1819.38 -208.199C1828.68 -198.903 1844.2 -185.643 1844.2 -185.643C1849.27 -181.134 1842.8 -173.533 1837.45 -177.751C1837.45 -177.751 1832.06 -182 1826.43 -187.077L1762.53 -58.4555L1840.31 -97.3328L1864.39 -149.114C1859.89 -154.18 1855.92 -159.28 1855.92 -159.28C1851.41 -164.35 1859.3 -171.11 1863.8 -166.039C1863.8 -166.039 1877.35 -150.235 1886.08 -141.503C1895.38 -132.209 1910.89 -118.947 1910.89 -118.947C1915.97 -114.435 1909.5 -106.836 1904.14 -111.057C1904.14 -111.057 1898.75 -115.315 1893.13 -120.381L1829.71 7.26445L1868.19 -13.494C1884.33 -21.9422 1896.08 -27.8471 1903.69 -35.4548Z" fill="#848484"/>
<path d="M1833 -81.6304L1728.86 -30.8165C1734.61 -20.2625 1741.84 -10.5883 1750.34 -2.09012C1760.69 8.25868 1772.4 16.3923 1784.89 22.3834C1785.03 21.7477 1785.23 21.1262 1785.48 20.5267L1833 -81.6304ZM1959.83 -55.6215C1957.38 -52.4086 1954.55 -49.1518 1951.29 -45.8848C1942.27 -36.8668 1930.45 -28.4136 1912.7 -20.811L1807.07 30.5272C1848.9 41.5405 1895.29 30.6878 1928.08 -2.09857C1943 -16.9775 1953.92 -35.3891 1959.83 -55.6215Z" fill="#848484"/>
<path d="M1942.8 -194.552C1885.68 -251.672 1792.74 -251.675 1735.62 -194.556C1678.49 -137.429 1678.49 -44.4879 1735.62 12.6335C1792.73 69.7514 1885.68 69.7632 1942.81 12.6351C1999.93 -44.4862 1999.92 -137.434 1942.8 -194.552ZM1740.37 7.88348C1685.87 -46.6168 1685.87 -135.302 1740.37 -189.806C1794.87 -244.304 1883.55 -244.303 1938.05 -189.801C1992.55 -135.302 1992.55 -46.6236 1938.05 7.87502C1883.55 62.3787 1794.86 62.3804 1740.37 7.88348Z" fill="#848484"/>
</g>
<mask id="mask2_202_3" style="mask-type:luminance" maskUnits="userSpaceOnUse" x="1374" y="1988" width="415" height="416">
<path d="M1581.21 1988.85L1788.39 2196.04L1581.21 2403.22L1374.02 2196.04L1581.21 1988.85Z" fill="white"/>
</mask>
<g mask="url(#mask2_202_3)">
<path d="M1492.34 2107.17C1457.17 2142.35 1447.21 2193.19 1462.45 2237.24L1536.2 2078.7C1519.74 2084.99 1504.8 2094.7 1492.34 2107.17ZM1645.69 2251.55C1656.67 2240.56 1660.33 2229.01 1662.87 2219.71C1665.68 2207.88 1667.66 2197.46 1674.98 2190.14C1683.15 2181.97 1696.95 2180.56 1705.68 2189.29C1706.07 2189.68 1706.4 2190.11 1706.76 2190.51C1705.43 2160.22 1693.21 2130.31 1670.08 2107.17C1639.03 2076.13 1595.79 2064.74 1555.77 2072.98C1557.79 2075.13 1559.72 2077.13 1561.38 2078.8C1570.68 2088.1 1586.2 2101.36 1586.2 2101.36C1591.27 2105.87 1584.8 2113.47 1579.45 2109.25C1579.45 2109.25 1574.06 2105 1568.43 2099.92L1504.53 2228.54L1582.31 2189.67L1606.39 2137.89C1601.89 2132.82 1597.92 2127.72 1597.92 2127.72C1593.41 2122.65 1601.3 2115.89 1605.8 2120.96C1605.8 2120.96 1619.35 2136.76 1628.08 2145.5C1637.38 2154.79 1652.89 2168.05 1652.89 2168.05C1657.97 2172.56 1651.5 2180.16 1646.14 2175.94C1646.14 2175.94 1640.75 2171.69 1635.13 2166.62L1571.71 2294.26L1610.19 2273.51C1626.33 2265.06 1638.08 2259.15 1645.69 2251.55Z" fill="#848484"/>
<path d="M1684.8 2092.45C1627.68 2035.33 1534.74 2035.32 1477.62 2092.44C1420.49 2149.57 1420.49 2242.51 1477.62 2299.63C1534.73 2356.75 1627.68 2356.76 1684.81 2299.64C1741.93 2242.51 1741.92 2149.57 1684.8 2092.45ZM1482.37 2294.88C1427.87 2240.38 1427.87 2151.7 1482.37 2097.19C1536.87 2042.7 1625.55 2042.7 1680.05 2097.2C1734.55 2151.7 1734.55 2240.38 1680.05 2294.88C1625.55 2349.38 1536.86 2349.38 1482.37 2294.88Z" fill="#848484"/>
</g>
<mask id="mask3_202_3" style="mask-type:luminance" maskUnits="userSpaceOnUse" x="-347" y="1559" width="415" height="416">
<path d="M-139.792 1559.85L67.3908 1767.04L-139.793 1974.22L-346.975 1767.04L-139.792 1559.85Z" fill="white"/>
</mask>
<g mask="url(#mask3_202_3)">
<path d="M308.256 2171L272.311 2135.06L268.497 2138.87C279.741 2150.12 279.139 2154.33 264.882 2168.59L239.176 2194.3C224.919 2208.55 220.502 2209.36 209.256 2198.11C201.831 2188.28 200.621 2177.83 201.426 2160.96L202.23 2141.69C216.889 2151.92 231.345 2150.72 240.182 2141.88C251.224 2130.84 250.223 2112.97 232.551 2095.3L197.209 2059.96L193.396 2063.77C204.639 2075.01 204.037 2079.23 189.781 2093.49L164.074 2119.19C149.818 2133.45 145.399 2134.26 134.154 2123.01L130.339 2126.83L170.299 2166.79L174.114 2162.97C162.872 2151.73 163.675 2147.31 177.932 2133.05L185.157 2125.83L188.572 2129.24L182.952 2179.44L241.388 2237.88C270.102 2266.59 297.814 2263.78 316.09 2245.51C334.361 2227.23 336.972 2199.72 308.256 2171ZM191.39 2119.6L218.094 2092.89L226.326 2101.12C235.361 2110.16 233.154 2120.4 225.925 2127.63C218.896 2134.66 208.655 2136.86 199.62 2127.83L191.39 2119.6ZM248.216 2232.25L246.809 2230.84C239.582 2223.62 240.381 2220.81 249.619 2211.57L293.196 2167.99L302.834 2177.63C323.718 2198.52 312.27 2217.59 300.421 2229.44C288.175 2241.69 269.098 2253.13 248.216 2232.25ZM45.2018 1988.27L100.025 1961.16C115.89 1953.33 117.495 1948.11 104.641 1935.26L108.659 1931.24L146.41 1968.99L142.393 1973.01C129.744 1960.36 123.721 1960.36 104.043 1970L12.4712 2015.78L9.86198 2013.17L52.2312 1929.84L-31.5045 1971.81L-34.117 1969.2L12.2699 1878.23C22.1098 1858.75 21.9068 1852.53 10.2594 1840.88L14.2771 1836.86L58.8564 1881.44L54.8387 1885.46C42.9883 1873.61 36.965 1873.21 28.7367 1889.88L1.22107 1944.3L81.7455 1904.33L85.5638 1908.15L45.2018 1988.27ZM84.1586 2085.86C62.071 2063.77 60.2616 2029.44 80.1442 2009.55C99.8238 1989.87 134.163 1991.68 156.25 2013.77C178.338 2035.86 180.145 2070.2 160.466 2089.88C140.583 2109.76 106.248 2107.95 84.1586 2085.86ZM150.021 2020C131.548 2001.53 108.456 2011.76 95.4019 2024.82C82.1463 2038.07 72.1103 2060.96 90.5826 2079.44C109.259 2098.11 132.15 2088.07 145.406 2074.82C158.46 2061.76 168.697 2038.68 150.021 2020Z" fill="#848484"/>
<path d="M-228.656 1678.17C-263.833 1713.35 -273.788 1764.19 -258.552 1808.24L-184.795 1649.7C-201.257 1655.99 -216.203 1665.7 -228.656 1678.17ZM-75.311 1822.55C-64.3281 1811.56 -60.6671 1800.01 -58.1307 1790.71C-55.3152 1778.88 -53.3367 1768.46 -46.0165 1761.14C-37.8474 1752.97 -24.049 1751.56 -15.3218 1760.29C-14.9278 1760.68 -14.6032 1761.11 -14.2396 1761.51C-15.567 1731.22 -27.7877 1701.31 -50.9237 1678.17C-81.9701 1647.13 -125.214 1635.74 -165.231 1643.98C-163.208 1646.13 -161.284 1648.13 -159.617 1649.8C-150.321 1659.1 -134.805 1672.36 -134.805 1672.36C-129.732 1676.87 -136.203 1684.47 -141.553 1680.25C-141.553 1680.25 -146.936 1676 -152.574 1670.92L-216.471 1799.54L-138.694 1760.67L-114.608 1708.89C-119.112 1703.82 -123.08 1698.72 -123.08 1698.72C-127.588 1693.65 -119.704 1686.89 -115.198 1691.96C-115.198 1691.96 -101.65 1707.76 -92.9175 1716.5C-83.6239 1725.79 -68.1058 1739.05 -68.1058 1739.05C-63.0294 1743.56 -69.5025 1751.16 -74.8562 1746.94C-74.8562 1746.94 -80.247 1742.69 -85.8746 1737.62L-149.29 1865.26L-110.806 1844.51C-94.6711 1836.06 -82.9188 1830.15 -75.311 1822.55Z" fill="#848484"/>
<path d="M-36.1987 1663.45C-93.3183 1606.33 -186.261 1606.32 -243.381 1663.44C-300.507 1720.57 -300.506 1813.51 -243.384 1870.63C-186.266 1927.75 -93.3183 1927.76 -36.1902 1870.64C20.9277 1813.51 20.9192 1720.57 -36.1987 1663.45ZM-238.634 1865.88C-293.135 1811.38 -293.135 1722.7 -238.631 1668.19C-184.132 1613.7 -95.4523 1613.7 -40.9503 1668.2C13.5483 1722.7 13.5483 1811.38 -40.9503 1865.88C-95.454 1920.38 -184.137 1920.38 -238.634 1865.88Z" fill="#848484"/>
</g>
<path fill-rule="evenodd" clip-rule="evenodd" d="M816.814 604.461C801.967 589.613 777.992 591.616 764.398 606.194C751.337 620.199 733.197 637.112 714.489 646.991C695.725 656.894 679.155 658.49 665.757 647.423L652.594 660.586C663.658 673.986 662.067 690.552 652.162 709.317C642.283 728.025 625.369 746.165 611.364 759.226C596.788 772.818 594.784 796.795 609.634 811.645L761.772 963.783C776.62 978.631 800.593 976.626 814.187 962.048C827.248 948.043 845.388 931.13 864.096 921.251C882.861 911.346 899.412 909.733 912.81 920.801L925.972 907.639C914.908 894.238 916.518 877.691 926.422 858.924C936.299 840.218 953.215 822.076 967.22 809.016C981.796 795.424 983.802 771.448 968.954 756.601L816.812 604.459L816.814 604.461ZM811.65 854.365C792.254 873.761 766.016 871.049 741.994 847.027L701.103 806.136C699.933 804.966 699.276 803.38 699.276 801.726C699.275 800.072 699.932 798.486 701.101 797.317L802.488 695.93C803.657 694.761 805.243 694.104 806.897 694.105C808.55 694.105 810.137 694.763 811.306 695.932L851.965 736.591C871.995 756.621 874.296 780.611 857.647 797.26C845.961 808.946 826.656 810.564 813.558 801.131L812.948 801.74C826.603 818.758 826.313 839.701 811.65 854.365ZM833.765 746.339L810.45 723.023L777.533 755.939L797.171 775.577C812.352 790.758 826.832 793.019 837.753 782.098C847.986 771.862 846.441 759.014 833.765 746.339ZM764.473 769L728.198 805.274L752.372 829.448C768.178 845.254 782.889 847.287 794.802 835.374C806.715 823.461 804.22 808.743 787.632 792.155L764.475 768.998L764.473 769Z" fill="#838383"/>
<path fill-rule="evenodd" clip-rule="evenodd" d="M2147.81 10.4609C2132.97 -4.38666 2108.99 -2.38436 2095.4 12.1936C2082.34 26.1985 2064.2 43.1121 2045.49 52.9908C2026.73 62.8939 2010.15 64.4896 1996.76 53.4232L1983.59 66.5857C1994.66 79.9862 1993.07 96.5519 1983.16 115.317C1973.28 134.025 1956.37 152.165 1942.36 165.226C1927.79 178.818 1925.78 202.795 1940.63 217.645L2092.77 369.783C2107.62 384.631 2131.59 382.626 2145.19 368.048C2158.25 354.043 2176.39 337.13 2195.1 327.251C2213.86 317.346 2230.41 315.733 2243.81 326.801L2256.97 313.639C2245.91 300.238 2247.52 283.691 2257.42 264.924C2267.3 246.218 2284.21 228.076 2298.22 215.016C2312.8 201.424 2314.8 177.448 2299.95 162.601L2147.81 10.4588L2147.81 10.4609ZM2142.65 260.365C2123.25 279.761 2097.02 277.049 2072.99 253.027L2032.1 212.136C2030.93 210.966 2030.28 209.38 2030.28 207.726C2030.28 206.072 2030.93 204.486 2032.1 203.317L2133.49 101.93C2134.66 100.761 2136.24 100.104 2137.9 100.105C2139.55 100.105 2141.14 100.763 2142.31 101.932L2182.97 142.591C2203 162.621 2205.3 186.611 2188.65 203.26C2176.96 214.946 2157.66 216.564 2144.56 207.131L2143.95 207.74C2157.6 224.758 2157.31 245.701 2142.65 260.365ZM2164.77 152.339L2141.45 129.023L2108.53 161.939L2128.17 181.577C2143.35 196.758 2157.83 199.019 2168.75 188.098C2178.99 177.862 2177.44 165.014 2164.77 152.339ZM2095.47 175L2059.2 211.274L2083.37 235.448C2099.18 251.254 2113.89 253.287 2125.8 241.374C2137.71 229.461 2135.22 214.743 2118.63 198.155L2095.47 174.998L2095.47 175Z" fill="#838383"/>
<path fill-rule="evenodd" clip-rule="evenodd" d="M168.814 1868.46C153.967 1853.61 129.991 1855.62 116.397 1870.19C103.337 1884.2 85.1963 1901.11 66.4886 1910.99C47.7249 1920.89 31.1547 1922.49 17.7567 1911.42L4.59422 1924.59C15.658 1937.99 14.0669 1954.55 4.16127 1973.32C-5.71695 1992.03 -22.631 2010.17 -36.6359 2023.23C-51.2118 2036.82 -53.2162 2060.8 -38.3661 2075.65L113.772 2227.78C128.619 2242.63 152.593 2240.63 166.187 2226.05C179.247 2212.04 197.388 2195.13 216.095 2185.25C234.861 2175.35 251.412 2173.73 264.81 2184.8L277.972 2171.64C266.908 2158.24 268.518 2141.69 278.422 2122.92C288.298 2104.22 305.214 2086.08 319.219 2073.02C333.795 2059.42 335.802 2035.45 320.954 2020.6L168.812 1868.46L168.814 1868.46ZM163.65 2118.36C144.254 2137.76 118.016 2135.05 93.9942 2111.03L53.1028 2070.14C51.9331 2068.97 51.2757 2067.38 51.2753 2065.73C51.2749 2064.07 51.9314 2062.49 53.1005 2061.32L154.488 1959.93C155.657 1958.76 157.243 1958.1 158.896 1958.1C160.55 1958.11 162.136 1958.76 163.306 1959.93L203.965 2000.59C223.995 2020.62 226.296 2044.61 209.647 2061.26C197.961 2072.95 178.656 2074.56 165.557 2065.13L164.948 2065.74C178.603 2082.76 178.313 2103.7 163.65 2118.36ZM185.765 2010.34L162.449 1987.02L129.533 2019.94L149.171 2039.58C164.352 2054.76 178.832 2057.02 189.753 2046.1C199.986 2035.86 198.44 2023.01 185.765 2010.34ZM116.473 2033L80.1981 2069.27L104.372 2093.45C120.178 2109.25 134.889 2111.29 146.802 2099.37C158.715 2087.46 156.22 2072.74 139.632 2056.15L116.475 2033L116.473 2033Z" fill="#838383"/>
<path d="M1108.19 1310.2C1223.59 1425.6 1363.52 1472.77 1420.73 1415.56C1477.94 1358.35 1430.77 1218.42 1315.37 1103.02C1199.97 987.617 1060.04 940.446 1002.83 997.658C945.618 1054.87 992.789 1194.8 1108.19 1310.2Z" fill="#838383"/>
<path fill-rule="evenodd" clip-rule="evenodd" d="M1000.17 1117.67L1133.48 1030.17L1186.43 1083.12C1207.96 1107.38 1208.51 1129.73 1189.42 1148.81C1156.71 1181.53 1110.44 1173.42 1087.47 1147.72L1061.71 1121.97L1027.36 1144.87L1000.17 1117.67ZM1087.88 1107.25L1135.93 1073.51L1154.53 1092.11C1164.55 1102.13 1167.62 1113.38 1159.44 1121.55C1134.84 1143.3 1119.3 1135.94 1105.05 1124.42L1087.88 1107.25ZM1133.67 1193.93L1266.98 1106.42L1294.17 1133.61L1259.82 1156.51L1285.58 1182.27C1307.12 1206.53 1304.8 1226.02 1288.31 1236.79L1222.4 1282.66L1193.78 1254.04L1254.23 1213.62C1262.48 1208.24 1266.57 1204.15 1256.55 1194.13L1235.08 1172.66L1160.87 1221.12L1133.67 1193.93ZM1191.95 1309.45L1325.25 1221.94L1378.2 1274.89C1399.74 1299.16 1400.29 1321.51 1381.2 1340.59C1348.49 1373.31 1302.21 1365.2 1279.25 1339.5L1253.49 1313.74L1219.14 1336.64L1191.95 1309.45ZM1279.66 1299.02L1327.7 1265.28L1346.31 1283.89C1356.33 1293.91 1359.39 1305.15 1351.22 1313.33C1326.61 1335.07 1311.08 1327.71 1296.83 1316.2L1279.66 1299.02L1279.66 1299.02Z" fill="#4B4B4B"/>
<path d="M-241.811 -23.8005C-126.411 91.5994 13.518 138.77 70.7299 81.5584C127.942 24.3466 80.7709 -115.583 -34.6291 -230.983C-150.029 -346.383 -289.958 -393.554 -347.17 -336.342C-404.382 -279.13 -357.211 -139.2 -241.811 -23.8005Z" fill="#838383"/>
<path fill-rule="evenodd" clip-rule="evenodd" d="M-349.83 -216.327L-216.523 -303.835L-163.572 -250.884C-142.038 -226.622 -141.491 -204.269 -160.575 -185.185C-193.288 -152.472 -239.562 -160.581 -262.53 -186.275L-288.288 -212.033L-322.637 -189.134L-349.83 -216.327ZM-262.12 -226.755L-214.071 -260.49L-195.467 -241.886C-185.448 -231.868 -182.382 -220.624 -190.56 -212.446C-215.163 -190.703 -230.702 -198.064 -244.945 -209.58L-262.12 -226.755ZM-216.328 -140.073L-83.0241 -227.58L-55.8312 -200.388L-90.1785 -177.49L-64.4189 -151.73C-42.8828 -127.467 -45.1995 -107.978 -61.6929 -97.2073L-127.596 -51.341L-156.218 -79.9639L-95.7682 -120.378C-87.5223 -125.764 -83.4334 -129.853 -93.4499 -139.869L-114.918 -161.337L-189.135 -112.88L-216.328 -140.073ZM-158.053 -24.5502L-24.7478 -112.059L28.2048 -59.1068C49.7409 -34.8437 50.2874 -12.4906 31.2032 6.59362C-1.50972 39.3065 -47.7853 31.1963 -70.7514 5.50316L-96.5126 -20.2581L-130.862 2.641L-158.053 -24.5502ZM-70.3448 -34.9794L-22.2959 -68.7152L-3.68958 -50.1088C6.3286 -40.0906 9.39457 -28.8468 1.21673 -20.669C-23.3864 1.07415 -38.9251 -6.28673 -53.1684 -17.803L-70.3432 -34.9778L-70.3448 -34.9794Z" fill="#4B4B4B"/>
<path d="M17.3793 838.923L191.425 633.852L376.306 819.495L170.725 992.269L73.3301 938.607L17.3793 838.923Z" fill="#BDBDBD"/>
<path d="M1348.38 244.923L1522.42 39.8518L1707.31 225.495L1501.73 398.269L1404.33 344.607L1348.38 244.923Z" fill="#BDBDBD"/>
<path d="M91.7226 920.23L266.378 745.575L342.492 822.196L172.611 964.84L91.7226 920.23Z" fill="#838383"/>
<path d="M1422.72 326.23L1597.38 151.575L1673.49 228.196L1503.61 370.84L1422.72 326.23Z" fill="#838383"/>
<path d="M277.934 844.248L303.147 823.357L185.768 705.977L121.578 783.137L202.587 864.146L169.266 891.113L136.358 872.134L117.632 838.211L134.218 818.827L110.944 795.552L77.3928 835.463L111.911 896.578L173.407 931.477L251.58 866.275L166.503 781.199L188.278 754.592L277.934 844.248Z" fill="#D6CDCD"/>
<path d="M1608.93 250.248L1634.15 229.357L1516.77 111.977L1452.58 189.137L1533.59 270.146L1500.27 297.113L1467.36 278.134L1448.63 244.211L1465.22 224.827L1441.94 201.552L1408.39 241.463L1442.91 302.578L1504.41 337.477L1582.58 272.275L1497.5 187.199L1519.28 160.592L1608.93 250.248Z" fill="#D6CDCD"/>
<g clip-path="url(#clip1_202_3)">
<path d="M297.923 1115.11L469.674 912.803L651.732 1095.61L448.928 1266.11L352.978 1213.31L297.923 1115.11Z" fill="#707070"/>
<path d="M371.04 1195.25L543.767 1022.52L618.644 1097.9L450.708 1239.04L371.04 1195.25Z" fill="#838383"/>
<path d="M578.16 1101.07L462.59 985.498L443.143 1011.21L497.985 1066.05L420.814 1035.29L402.117 1060.24L481.628 1139.75L448.267 1167.35L416.077 1145.7L397.933 1115.02L413.365 1095.83L390.952 1073.41L357.955 1112.42L392.615 1173.92L453.37 1205.33L529.626 1140.84L480.917 1092.13L556.082 1123.14L578.16 1101.07Z" fill="#D5D5D5"/>
</g>
<g clip-path="url(#clip2_202_3)">
<path d="M1628.92 521.105L1800.67 318.803L1982.73 501.612L1779.93 672.11L1683.98 619.31L1628.92 521.105Z" fill="#707070"/>
<path d="M1702.04 601.247L1874.77 428.52L1949.64 503.898L1781.71 645.04L1702.04 601.247Z" fill="#838383"/>
<path d="M1909.16 507.069L1793.59 391.498L1774.14 417.206L1828.99 472.048L1751.81 441.29L1733.12 466.245L1812.63 545.755L1779.27 573.355L1747.08 551.703L1728.93 521.016L1744.37 501.827L1721.95 479.414L1688.96 518.42L1723.62 579.922L1784.37 611.326L1860.63 546.839L1811.92 498.13L1887.08 529.143L1909.16 507.069Z" fill="#D5D5D5"/>
</g>
<path d="M905.511 1564.79C896.436 1555.82 886.452 1550.18 876.666 1546.85C879.043 1539.64 880.814 1533.03 883.541 1529.49C886.722 1525.4 888.39 1522.63 893.286 1518.84C898.182 1515.05 906.862 1511.41 907.367 1510.91C907.771 1510.4 909.488 1507.68 904.347 1502.44C899.205 1497.19 893.657 1493.77 891.79 1494.63C889.923 1495.48 885.784 1497.61 881.898 1500.18C876.244 1504.02 849.954 1511.36 835.724 1514.8C837.393 1509.6 838.91 1505.06 841.031 1502.33C844.212 1498.24 845.879 1495.47 850.776 1491.68C855.673 1487.89 864.353 1484.25 864.857 1483.75C865.261 1483.24 866.979 1480.52 861.837 1475.27C856.695 1470.03 851.148 1466.61 849.281 1467.46C847.413 1468.32 843.628 1471 839.388 1473.02C835.199 1475.09 794.524 1490.56 783.927 1494.6C778.527 1496.68 774.087 1498.19 771.008 1499.15C767.93 1500.12 770.806 1499.26 770.503 1499.36C767.879 1500.17 766.416 1500.62 766.416 1500.62L766.365 1500.67C764.397 1501.23 762.429 1501.68 762.076 1501.33C761.824 1501.08 764.702 1497.19 770.204 1493.4C781.814 1485.52 801.547 1474.86 802.053 1474.26C802.305 1474.01 805.838 1472.19 803.42 1467.04C801.103 1462 797.521 1462.96 797.218 1462.66C796.915 1462.36 795.855 1462.91 795.855 1462.91C795.855 1462.91 817.054 1449.88 805.156 1437.98C797.695 1430.52 779.282 1428.37 766.769 1430.7C761.775 1429.24 751.183 1426.12 739.935 1422.85C735.647 1421.59 731.158 1420.33 726.972 1419.07L727.024 1417.91C728.005 1388.09 712.242 1350.52 734.051 1330.93C741.977 1323.81 764.44 1306.59 836.668 1330.75C895.832 1350.54 922.039 1387.55 915.518 1405.06C906.166 1430.04 849.555 1437.24 803.924 1400.8C786.529 1386.94 784.37 1372.66 784.575 1368.33C784.781 1363.79 784.579 1363.38 783.318 1363.03C781.301 1362.43 779.987 1365.35 779.229 1367.12C777.258 1371.51 776.644 1382.21 782.387 1393.6C787.425 1403.59 804.412 1423.3 835.177 1436.9C869.674 1452.11 915.842 1444.76 932.512 1416.7C949.484 1388.13 919.247 1342.95 870.932 1319.98C842.135 1306.33 807.332 1295.16 775.296 1294.12C737.258 1292.84 718.077 1305.77 712.723 1313.74C693.531 1342.11 710.749 1390.33 712.396 1414.89C711.388 1414.59 710.429 1414.34 709.571 1414.09C699.787 1410.77 661.755 1398.89 641.671 1406.47C618.962 1415.06 615.869 1434.49 619.799 1441.45C631.942 1462.98 657.615 1471.79 680.826 1467.24C703.985 1462.63 720.901 1443.49 724.845 1430.98L724.997 1430.52L733.168 1432.64C738.465 1434 743.559 1435.46 747.998 1436.76C741.993 1439.54 735.633 1443.58 727.455 1450.55C717.863 1458.73 709.982 1473.87 710.227 1483.21C710.376 1487.29 712.846 1489.86 714.408 1491.43C719.954 1496.97 727.069 1494.9 735.345 1492.17C745.488 1488.88 756.288 1484.13 756.288 1484.13C756.288 1484.13 731.453 1501.4 741.788 1511.74C745.569 1515.52 754.247 1514.4 758.486 1513.59L758.435 1513.64C758.435 1513.64 758.688 1513.59 759.243 1513.44C759.768 1513.34 760.289 1513.22 760.806 1513.09L760.907 1512.99C765.045 1511.87 774.431 1509.24 789.418 1504.34C808.745 1498.02 831.052 1488.21 831.052 1488.21C831.052 1488.21 827.719 1492.76 823.122 1501.08C820.393 1506.03 818.623 1512.64 816.399 1518.59C812.766 1519.2 810.646 1519.51 810.646 1519.51L810.646 1519.61C807.821 1520.01 804.742 1520.37 801.615 1520.67C790.313 1521.69 777.144 1522.56 774.318 1523.77C770.988 1525.19 769.423 1527.16 769.874 1530.44C770.225 1532.81 772.444 1535.43 775.216 1537.8C780.158 1542.13 784.545 1544.2 786.865 1545.1C790.295 1546.72 794.531 1548.23 799.324 1548.98C808.101 1550.28 816.477 1548.06 823.243 1540.69C826.979 1536.65 829.556 1531.55 831.628 1526.35C832.738 1526.15 833.85 1525.95 835.009 1525.7C854.638 1522 873.612 1515.32 873.612 1515.32C873.612 1515.32 870.278 1519.87 865.681 1528.2C863.357 1532.43 861.688 1537.94 859.868 1543.18C846.298 1541.83 834.541 1544.21 828.283 1547.24C816.725 1552.85 815.157 1559.06 818.634 1564.35C820.196 1566.72 823.928 1568.64 826.954 1569.85C830.434 1571.61 835.074 1573.32 840.169 1574.07C848.947 1575.38 858.987 1575.02 865.752 1567.75C868.832 1564.37 871.156 1560.33 873.026 1556.14C882.003 1559.87 891.735 1566.57 900.909 1578.27C920.717 1603.33 911.118 1621.8 904.405 1626.8C897.691 1631.8 889.772 1630.34 887.198 1629.79C884.676 1629.18 883.818 1629.03 883.263 1629.89C882.404 1631.15 883.161 1631.81 884.724 1632.97C886.892 1634.53 901.317 1639.97 912.524 1629.57C927.015 1616.29 929.004 1587.98 905.511 1564.79ZM674.078 1450.19C658.539 1450.91 645.023 1443.55 643.212 1436.49C641.2 1428.92 655.03 1418.82 672.789 1419.31C683.585 1419.61 695.641 1421.97 703.359 1423.73C705.074 1424.13 707.646 1424.79 710.723 1425.54C711.227 1425.64 711.53 1425.74 711.53 1425.74C712.085 1425.89 712.741 1426.04 713.397 1426.19C704.455 1441.89 690.424 1449.47 674.078 1450.19ZM765.179 1467.48C756.297 1471.22 734.646 1481.98 732.277 1477.79C730.211 1474.21 740.766 1460.23 756.865 1452.09C764.992 1448 776.546 1445.02 781.895 1444.71C790.523 1444.25 796.473 1447.17 795.715 1450.15C794.602 1453.88 770.73 1465.15 765.179 1467.48ZM788.489 1533.6C786.824 1533.05 785.412 1532.44 785.261 1531.68C785.11 1531.13 786.673 1531.18 786.673 1531.18C786.673 1531.18 798.277 1530.77 803.272 1530.21C806.148 1529.85 809.528 1529.5 813.262 1528.99L812.657 1529.6C805.387 1536.87 793.583 1534.76 788.489 1533.6ZM830.847 1560.21C830.646 1558.79 832.616 1557.03 841.194 1553.89C844.576 1552.63 850.883 1551.16 858.753 1551.66C857.742 1553.68 856.581 1555.44 855.167 1556.76C846.029 1565.79 836.194 1562.72 830.847 1560.21Z" fill="#838383"/>
<path d="M2236.51 970.792C2227.44 961.819 2217.45 956.175 2207.67 952.853C2210.04 945.637 2211.81 939.026 2214.54 935.494C2217.72 931.405 2219.39 928.628 2224.29 924.841C2229.18 921.053 2237.86 917.414 2238.37 916.909C2238.77 916.404 2240.49 913.678 2235.35 908.436C2230.2 903.193 2224.66 899.766 2222.79 900.625C2220.92 901.484 2216.78 903.606 2212.9 906.182C2207.24 910.021 2180.95 917.355 2166.72 920.797C2168.39 915.599 2169.91 911.057 2172.03 908.33C2175.21 904.242 2176.88 901.465 2181.78 897.679C2186.67 893.891 2195.35 890.253 2195.86 889.748C2196.26 889.243 2197.98 886.517 2192.84 881.275C2187.69 876.031 2182.15 872.605 2180.28 873.464C2178.41 874.323 2174.63 877 2170.39 879.021C2166.2 881.092 2125.52 896.56 2114.93 900.604C2109.53 902.677 2105.09 904.194 2102.01 905.154C2098.93 906.115 2101.81 905.255 2101.5 905.356C2098.88 906.166 2097.42 906.621 2097.42 906.621L2097.36 906.672C2095.4 907.228 2093.43 907.683 2093.08 907.33C2092.82 907.078 2095.7 903.191 2101.2 899.403C2112.81 891.524 2132.55 880.865 2133.05 880.26C2133.31 880.007 2136.84 878.187 2134.42 873.044C2132.1 868 2128.52 868.962 2128.22 868.659C2127.92 868.357 2126.86 868.912 2126.86 868.912C2126.86 868.912 2148.05 855.881 2136.16 843.983C2128.7 836.522 2110.28 834.366 2097.77 836.696C2092.78 835.237 2082.18 832.116 2070.93 828.846C2066.65 827.588 2062.16 826.33 2057.97 825.072L2058.02 823.911C2059.01 794.094 2043.24 756.52 2065.05 736.929C2072.98 729.809 2095.44 712.589 2167.67 736.752C2226.83 756.536 2253.04 793.547 2246.52 811.058C2237.17 836.038 2180.55 843.244 2134.92 806.802C2117.53 792.941 2115.37 778.665 2115.58 774.326C2115.78 769.785 2115.58 769.382 2114.32 769.03C2112.3 768.426 2110.99 771.353 2110.23 773.119C2108.26 777.51 2107.64 788.206 2113.39 799.604C2118.42 809.589 2135.41 829.303 2166.18 842.902C2200.67 858.112 2246.84 850.763 2263.51 822.7C2280.48 794.132 2250.25 748.951 2201.93 725.981C2173.13 712.33 2138.33 701.155 2106.3 700.12C2068.26 698.836 2049.08 711.765 2043.72 719.741C2024.53 748.109 2041.75 796.326 2043.4 820.895C2042.39 820.592 2041.43 820.341 2040.57 820.089C2030.79 816.766 1992.76 804.889 1972.67 812.471C1949.96 821.064 1946.87 840.49 1950.8 847.45C1962.94 868.983 1988.61 877.793 2011.83 873.235C2034.99 868.627 2051.9 849.494 2055.85 836.979L2056 836.524L2064.17 838.637C2069.46 839.996 2074.56 841.455 2079 842.763C2072.99 845.543 2066.63 849.583 2058.45 856.552C2048.86 864.732 2040.98 879.873 2041.23 889.206C2041.38 893.292 2043.85 895.863 2045.41 897.426C2050.95 902.972 2058.07 900.897 2066.34 898.167C2076.49 894.881 2087.29 890.13 2087.29 890.13C2087.29 890.13 2062.45 907.403 2072.79 917.738C2076.57 921.519 2085.25 920.402 2089.49 919.592L2089.44 919.642C2089.44 919.642 2089.69 919.592 2090.24 919.44C2090.77 919.338 2091.29 919.22 2091.81 919.086L2091.91 918.985C2096.05 917.872 2105.43 915.242 2120.42 910.337C2139.75 904.016 2162.05 894.212 2162.05 894.212C2162.05 894.212 2158.72 898.756 2154.12 907.083C2151.39 912.029 2149.62 918.639 2147.4 924.594C2143.77 925.202 2141.65 925.507 2141.65 925.507L2141.65 925.608C2138.82 926.014 2135.74 926.37 2132.61 926.675C2121.31 927.692 2108.14 928.56 2105.32 929.773C2101.99 931.187 2100.42 933.156 2100.87 936.436C2101.23 938.806 2103.44 941.428 2106.22 943.797C2111.16 948.132 2115.54 950.198 2117.87 951.104C2121.29 952.715 2125.53 954.226 2130.32 954.979C2139.1 956.285 2147.48 954.059 2154.24 946.688C2157.98 942.649 2160.56 937.552 2162.63 932.354C2163.74 932.151 2164.85 931.949 2166.01 931.695C2185.64 927.997 2204.61 921.324 2204.61 921.324C2204.61 921.324 2201.28 925.867 2196.68 934.195C2194.36 938.434 2192.69 943.936 2190.87 949.184C2177.3 947.832 2165.54 950.212 2159.28 953.243C2147.73 958.852 2146.16 965.059 2149.63 970.353C2151.2 972.723 2154.93 974.638 2157.95 975.846C2161.43 977.609 2166.07 979.32 2171.17 980.074C2179.95 981.38 2189.99 981.019 2196.75 973.749C2199.83 970.367 2202.16 966.329 2204.03 962.14C2213 965.867 2222.73 972.569 2231.91 984.267C2251.72 1009.33 2242.12 1027.8 2235.4 1032.8C2228.69 1037.8 2220.77 1036.34 2218.2 1035.79C2215.68 1035.18 2214.82 1035.03 2214.26 1035.89C2213.4 1037.15 2214.16 1037.81 2215.72 1038.97C2217.89 1040.53 2232.32 1045.97 2243.52 1035.57C2258.02 1022.29 2260 993.982 2236.51 970.792ZM2005.08 856.188C1989.54 856.906 1976.02 849.55 1974.21 842.488C1972.2 834.922 1986.03 824.821 2003.79 825.313C2014.59 825.608 2026.64 827.97 2034.36 829.73C2036.07 830.132 2038.65 830.787 2041.72 831.541C2042.23 831.642 2042.53 831.742 2042.53 831.742C2043.09 831.893 2043.74 832.044 2044.4 832.195C2035.46 847.892 2021.42 855.469 2005.08 856.188ZM2096.18 873.476C2087.3 877.215 2065.65 887.977 2063.28 883.792C2061.21 880.211 2071.77 866.229 2087.87 858.094C2095.99 854.001 2107.55 851.016 2112.9 850.709C2121.52 850.249 2127.47 853.17 2126.71 856.148C2125.6 859.883 2101.73 871.151 2096.18 873.476ZM2119.49 939.599C2117.82 939.046 2116.41 938.441 2116.26 937.685C2116.11 937.13 2117.67 937.179 2117.67 937.179C2117.67 937.179 2129.28 936.767 2134.27 936.208C2137.15 935.853 2140.53 935.498 2144.26 934.99L2143.66 935.596C2136.39 942.866 2124.58 940.756 2119.49 939.599ZM2161.85 966.205C2161.65 964.793 2163.62 963.026 2172.19 959.891C2175.58 958.628 2181.88 957.16 2189.75 957.658C2188.74 959.677 2187.58 961.444 2186.17 962.757C2177.03 971.795 2167.19 968.724 2161.85 966.205Z" fill="#838383"/>
<g clip-path="url(#clip3_202_3)">
<path d="M1727.7 1580.47C1735.71 1535.09 1706.71 1490.26 1663.05 1480.55L1586.36 1463.5C1581.23 1462.32 1575.99 1461.68 1570.73 1461.59C1565.46 1461.49 1560.21 1461.95 1555.04 1462.95C1549.87 1463.94 1544.83 1465.47 1539.97 1467.51C1535.13 1469.55 1530.5 1472.09 1526.18 1475.08C1522.56 1477.6 1519.14 1480.41 1515.99 1483.49C1512.82 1486.56 1509.92 1489.9 1507.31 1493.46C1504.7 1497.01 1502.39 1500.78 1500.4 1504.72C1498.41 1508.66 1496.75 1512.75 1495.44 1516.97C1492.93 1517.48 1490.44 1518.13 1487.99 1518.89C1485.55 1519.65 1483.14 1520.55 1480.78 1521.55C1478.42 1522.56 1476.12 1523.69 1473.87 1524.93C1471.63 1526.18 1469.45 1527.53 1467.35 1529C1458.51 1535.16 1450.99 1543.03 1445.24 1552.14C1442.38 1556.69 1439.97 1561.51 1438.06 1566.53C1436.15 1571.56 1434.74 1576.76 1433.87 1582.07C1425.86 1627.45 1454.86 1672.28 1498.52 1681.99L1575.08 1699.16C1580.21 1700.34 1585.45 1700.97 1590.71 1701.05C1595.98 1701.14 1601.23 1700.69 1606.4 1699.69C1611.56 1698.7 1616.61 1697.17 1621.46 1695.13C1626.31 1693.1 1630.93 1690.56 1635.26 1687.57C1638.88 1685.06 1642.29 1682.25 1645.45 1679.17C1648.61 1676.1 1651.51 1672.76 1654.11 1669.2C1656.72 1665.65 1659.03 1661.88 1661.01 1657.94C1663 1654 1664.65 1649.91 1665.97 1645.69C1668.48 1645.18 1670.97 1644.53 1673.41 1643.77C1675.86 1643 1678.27 1642.12 1680.63 1641.11C1682.99 1640.1 1685.3 1638.98 1687.54 1637.74C1689.78 1636.5 1691.97 1635.14 1694.08 1633.69C1698.48 1630.61 1702.57 1627.1 1706.28 1623.21C1709.99 1619.33 1713.31 1615.08 1716.17 1610.53C1719.04 1605.99 1721.45 1601.17 1723.36 1596.15C1725.27 1591.12 1726.68 1585.92 1727.56 1580.62" fill="#838383"/>
<path d="M1490.53 1643.9C1485.91 1641.18 1481.74 1637.78 1478.14 1633.8C1474.55 1629.82 1471.58 1625.32 1469.35 1620.45C1467.11 1615.58 1465.63 1610.41 1464.95 1605.09C1464.28 1599.78 1464.42 1594.4 1465.37 1589.13C1465.89 1585.94 1466.74 1582.81 1467.89 1579.79C1469.04 1576.77 1470.48 1573.87 1472.21 1571.14C1473.94 1568.41 1475.93 1565.86 1478.16 1563.52C1480.4 1561.19 1482.86 1559.08 1485.51 1557.24C1485.94 1556.94 1486.38 1556.64 1486.82 1556.36C1487.26 1556.07 1487.71 1555.8 1488.17 1555.53C1488.62 1555.26 1489.08 1555.01 1489.54 1554.75C1490 1554.5 1490.47 1554.26 1490.94 1554.03L1494.52 1552.22L1495.13 1556.42C1495.51 1558.8 1495.98 1561.18 1496.56 1563.52C1497.13 1565.87 1497.8 1568.19 1498.57 1570.48C1499.34 1572.77 1500.21 1575.03 1501.17 1577.25C1502.13 1579.47 1503.18 1581.64 1504.33 1583.77L1505.6 1586.09L1503.65 1587.72C1502.34 1588.86 1501.24 1590.21 1500.4 1591.72C1499.98 1592.48 1499.62 1593.27 1499.34 1594.08C1499.05 1594.9 1498.84 1595.74 1498.7 1596.59C1498.42 1598.18 1498.38 1599.8 1498.58 1601.4C1498.79 1603 1499.23 1604.56 1499.91 1606.02C1500.58 1607.49 1501.48 1608.84 1502.56 1610.04C1503.64 1611.24 1504.9 1612.26 1506.29 1613.08C1506.61 1613.27 1506.94 1613.44 1507.28 1613.6C1507.61 1613.76 1507.95 1613.91 1508.3 1614.04C1508.64 1614.18 1508.99 1614.3 1509.35 1614.41C1509.7 1614.52 1510.06 1614.62 1510.42 1614.7L1587.04 1631.67C1587.97 1631.89 1588.92 1632 1589.88 1632.02C1590.84 1632.04 1591.79 1631.95 1592.73 1631.77C1593.67 1631.59 1594.59 1631.3 1595.47 1630.93C1596.35 1630.56 1597.19 1630.09 1597.97 1629.55C1598.77 1628.99 1599.51 1628.35 1600.18 1627.64C1600.85 1626.94 1601.45 1626.17 1601.97 1625.34C1602.49 1624.52 1602.92 1623.64 1603.26 1622.73C1603.61 1621.82 1603.86 1620.87 1604.01 1619.91C1604.3 1618.32 1604.34 1616.7 1604.13 1615.1C1603.92 1613.5 1603.48 1611.94 1602.81 1610.48C1602.13 1609.01 1601.24 1607.66 1600.16 1606.46C1599.07 1605.26 1597.81 1604.24 1596.42 1603.42C1596.1 1603.23 1595.77 1603.06 1595.44 1602.9C1595.1 1602.74 1594.77 1602.59 1594.42 1602.45C1594.07 1602.32 1593.72 1602.2 1593.37 1602.09C1593.02 1601.98 1592.65 1601.88 1592.29 1601.8L1562.93 1595.22C1561.73 1594.96 1560.54 1594.64 1559.37 1594.28C1558.19 1593.92 1557.04 1593.52 1555.89 1593.07C1554.75 1592.62 1553.62 1592.13 1552.52 1591.6C1551.41 1591.07 1550.32 1590.49 1549.26 1589.88C1544.65 1587.16 1540.48 1583.76 1536.9 1579.79C1533.32 1575.82 1530.36 1571.32 1528.13 1566.47C1525.9 1561.61 1524.42 1556.44 1523.75 1551.13C1523.07 1545.83 1523.2 1540.46 1524.15 1535.2C1524.68 1532.01 1525.53 1528.89 1526.69 1525.87C1527.84 1522.85 1529.29 1519.96 1531.02 1517.23C1532.74 1514.5 1534.74 1511.95 1536.98 1509.62C1539.21 1507.29 1541.67 1505.19 1544.32 1503.35C1549.54 1499.72 1555.46 1497.22 1561.7 1496C1567.94 1494.79 1574.37 1494.9 1580.57 1496.32L1657.33 1513.44C1658.52 1513.71 1659.7 1514.02 1660.87 1514.37C1662.04 1514.72 1663.2 1515.13 1664.34 1515.57C1665.48 1516.01 1666.6 1516.49 1667.7 1517.02C1668.8 1517.55 1669.89 1518.12 1670.95 1518.73C1675.56 1521.45 1679.74 1524.85 1683.33 1528.82C1686.92 1532.8 1689.89 1537.29 1692.12 1542.16C1694.36 1547.03 1695.84 1552.21 1696.51 1557.52C1697.18 1562.83 1697.04 1568.21 1696.09 1573.48C1695.57 1576.67 1694.73 1579.8 1693.58 1582.82C1692.43 1585.84 1690.98 1588.74 1689.26 1591.47C1687.54 1594.21 1685.54 1596.76 1683.31 1599.1C1681.08 1601.43 1678.62 1603.54 1675.97 1605.39C1675.53 1605.69 1675.09 1605.98 1674.64 1606.26C1674.19 1606.55 1673.74 1606.83 1673.28 1607.09C1672.83 1607.37 1672.37 1607.63 1671.9 1607.89C1671.44 1608.14 1670.97 1608.39 1670.5 1608.63L1666.91 1610.43L1666.31 1606.24C1665.94 1603.84 1665.47 1601.47 1664.9 1599.11C1664.33 1596.75 1663.66 1594.41 1662.89 1592.11C1661.35 1587.51 1659.42 1583.04 1657.13 1578.76L1655.85 1576.44L1657.81 1574.82C1658.47 1574.25 1659.09 1573.63 1659.64 1572.96C1660.2 1572.3 1660.69 1571.58 1661.13 1570.83C1661.55 1570.07 1661.92 1569.28 1662.21 1568.46C1662.5 1567.65 1662.72 1566.8 1662.87 1565.94C1663.13 1564.37 1663.15 1562.76 1662.93 1561.18C1662.72 1559.6 1662.26 1558.06 1661.58 1556.61C1660.22 1553.7 1658 1551.27 1655.22 1549.66C1654.9 1549.47 1654.57 1549.29 1654.24 1549.13C1653.91 1548.97 1653.56 1548.82 1653.22 1548.68C1652.88 1548.55 1652.52 1548.43 1652.17 1548.32C1651.81 1548.21 1651.45 1548.11 1651.09 1548.03L1574.44 1530.91C1573.51 1530.7 1572.56 1530.59 1571.6 1530.57C1570.65 1530.56 1569.69 1530.64 1568.76 1530.82C1567.82 1531 1566.91 1531.28 1566.03 1531.65C1565.15 1532.02 1564.31 1532.48 1563.53 1533.02C1562.73 1533.59 1561.99 1534.23 1561.31 1534.94C1559.97 1536.36 1558.92 1538.03 1558.22 1539.86C1557.88 1540.77 1557.62 1541.72 1557.46 1542.68C1557.19 1544.25 1557.15 1545.86 1557.35 1547.45C1557.55 1549.04 1557.99 1550.59 1558.66 1552.05C1560 1554.97 1562.2 1557.43 1564.96 1559.08C1565.29 1559.26 1565.62 1559.44 1565.95 1559.6C1566.28 1559.75 1566.63 1559.9 1566.97 1560.04C1567.32 1560.18 1567.67 1560.3 1568.02 1560.41C1568.37 1560.52 1568.73 1560.62 1569.1 1560.7L1598.44 1567.29C1599.64 1567.56 1600.84 1567.87 1602.01 1568.23C1603.19 1568.58 1604.35 1568.98 1605.5 1569.43C1606.65 1569.88 1607.78 1570.37 1608.88 1570.9C1609.99 1571.44 1611.08 1572.02 1612.15 1572.64C1616.76 1575.35 1620.94 1578.75 1624.54 1582.72C1628.13 1586.7 1631.1 1591.19 1633.33 1596.06C1635.57 1600.92 1637.05 1606.1 1637.72 1611.41C1638.4 1616.73 1638.26 1622.1 1637.31 1627.37C1636.78 1630.56 1635.94 1633.69 1634.79 1636.71C1633.64 1639.73 1632.2 1642.63 1630.47 1645.36C1628.75 1648.09 1626.76 1650.65 1624.53 1652.99C1622.3 1655.33 1619.84 1657.43 1617.19 1659.28C1614.59 1661.09 1611.81 1662.62 1608.89 1663.86C1605.97 1665.09 1602.93 1666.02 1599.81 1666.62C1596.7 1667.22 1593.54 1667.5 1590.36 1667.45C1587.19 1667.4 1584.04 1667.02 1580.94 1666.31L1504.24 1649.24C1503.04 1648.97 1501.84 1648.66 1500.67 1648.3C1499.49 1647.94 1498.33 1647.54 1497.18 1647.09C1496.04 1646.64 1494.91 1646.15 1493.8 1645.62C1492.69 1645.09 1491.6 1644.51 1490.53 1643.9Z" fill="#D0D0D0"/>
</g>
<g clip-path="url(#clip4_202_3)">
<path d="M377.702 246.472C385.709 201.088 356.707 156.26 313.047 146.545L236.363 129.495C231.232 128.321 225.99 127.679 220.729 127.588C215.465 127.494 210.207 127.95 205.041 128.946C199.874 129.942 194.826 131.472 189.975 133.509C185.127 135.55 180.504 138.089 176.181 141.085C172.559 143.599 169.145 146.408 165.986 149.486C162.821 152.564 159.921 155.9 157.313 159.455C154.702 163.013 152.39 166.783 150.4 170.721C148.409 174.658 146.751 178.754 145.439 182.967C142.927 183.484 140.443 184.126 137.995 184.891C135.546 185.654 133.138 186.545 130.78 187.553C128.422 188.562 126.118 189.691 123.874 190.934C121.63 192.177 119.453 193.534 117.347 194.996C108.507 201.157 100.991 209.027 95.2424 218.142C92.3769 222.686 89.9679 227.506 88.0589 232.531C86.15 237.556 84.7412 242.759 83.8659 248.066C75.8593 293.451 104.858 338.275 148.517 347.99L225.078 365.164C230.212 366.335 235.45 366.966 240.715 367.054C245.977 367.143 251.233 366.687 256.4 365.693C261.563 364.7 266.611 363.17 271.462 361.134C276.309 359.101 280.934 356.564 285.26 353.574C288.882 351.06 292.289 348.251 295.447 345.173C298.606 342.095 301.506 338.759 304.11 335.201C306.718 331.646 309.027 327.88 311.014 323.939C312.998 320.001 314.655 315.905 315.968 311.692C318.477 311.177 320.966 310.535 323.415 309.771C325.861 309.005 328.272 308.117 330.63 307.109C332.989 306.101 335.296 304.975 337.543 303.735C339.784 302.495 341.967 301.145 344.077 299.687C348.483 296.61 352.571 293.1 356.282 289.214C359.994 285.327 363.306 281.082 366.175 276.534C369.04 271.99 371.449 267.17 373.358 262.145C375.27 257.122 376.676 251.92 377.558 246.616" fill="#838383"/>
<path d="M140.534 309.898C135.915 307.182 131.736 303.776 128.143 299.8C124.553 295.821 121.584 291.323 119.349 286.453C117.112 281.585 115.629 276.405 114.952 271.092C114.279 265.781 114.419 260.399 115.367 255.132C115.895 251.938 116.738 248.811 117.89 245.792C119.038 242.772 120.485 239.874 122.209 237.142C123.938 234.412 125.93 231.857 128.163 229.523C130.395 227.189 132.857 225.084 135.509 223.237C135.939 222.935 136.378 222.644 136.821 222.362C137.263 222.074 137.713 221.799 138.166 221.534C138.618 221.263 139.078 221.005 139.544 220.754C140.004 220.502 140.473 220.261 140.943 220.027L144.518 218.217L145.132 222.419C145.506 224.804 145.981 227.177 146.556 229.523C147.128 231.872 147.801 234.194 148.574 236.483C149.341 238.772 150.208 241.034 151.17 243.249C152.127 245.468 153.183 247.643 154.328 249.774L155.605 252.09L153.65 253.723C152.343 254.857 151.243 256.211 150.402 257.724C149.976 258.478 149.624 259.266 149.34 260.082C149.055 260.897 148.841 261.735 148.701 262.587C148.417 264.176 148.377 265.798 148.583 267.399C148.786 268.996 149.233 270.557 149.909 272.023C150.584 273.49 151.478 274.84 152.562 276.038C153.64 277.237 154.899 278.261 156.292 279.078C156.614 279.266 156.94 279.437 157.276 279.598C157.611 279.76 157.95 279.911 158.296 280.042C158.642 280.18 158.991 280.301 159.35 280.412C159.702 280.523 160.058 280.617 160.42 280.698L237.037 297.674C237.97 297.888 238.923 298.005 239.88 298.021C240.839 298.035 241.792 297.949 242.731 297.768C243.671 297.588 244.587 297.303 245.469 296.931C246.348 296.556 247.186 296.094 247.971 295.551C248.769 294.988 249.507 294.351 250.181 293.643C250.851 292.939 251.448 292.168 251.967 291.34C252.487 290.518 252.919 289.642 253.264 288.727C253.609 287.818 253.856 286.872 254.013 285.909C254.298 284.322 254.337 282.705 254.131 281.104C253.925 279.503 253.478 277.943 252.805 276.479C252.131 275.014 251.237 273.659 250.155 272.461C249.071 271.263 247.812 270.238 246.422 269.419C246.103 269.234 245.774 269.059 245.438 268.898C245.103 268.737 244.767 268.589 244.422 268.451C244.072 268.316 243.723 268.195 243.368 268.088C243.015 267.977 242.653 267.883 242.29 267.802L212.927 261.224C211.732 260.955 210.544 260.639 209.37 260.282C208.195 259.919 207.037 259.519 205.893 259.072C204.748 258.625 203.62 258.134 202.516 257.6C201.408 257.069 200.324 256.494 199.26 255.88C194.651 253.162 190.485 249.76 186.902 245.788C183.319 241.816 180.363 237.325 178.128 232.468C175.897 227.608 174.42 222.436 173.745 217.134C173.071 211.833 173.204 206.461 174.147 201.2C174.681 198.013 175.531 194.887 176.687 191.871C177.839 188.852 179.289 185.958 181.015 183.231C182.745 180.501 184.743 177.952 186.979 175.622C189.209 173.292 191.67 171.186 194.323 169.346C199.539 165.717 205.457 163.217 211.698 162.004C217.94 160.793 224.369 160.899 230.572 162.316L307.33 179.44C308.521 179.706 309.702 180.015 310.874 180.368C312.042 180.725 313.199 181.125 314.337 181.565C315.477 182.007 316.599 182.494 317.7 183.024C318.801 183.548 319.885 184.116 320.946 184.727C325.562 187.445 329.741 190.847 333.331 194.819C336.921 198.798 339.887 203.293 342.121 208.163C344.36 213.03 345.836 218.208 346.514 223.52C347.185 228.832 347.043 234.214 346.093 239.481C345.565 242.668 344.725 245.798 343.577 248.82C342.428 251.842 340.984 254.737 339.261 257.474C337.535 260.207 335.544 262.762 333.311 265.096C331.081 267.433 328.624 269.542 325.971 271.388C325.532 271.687 325.089 271.982 324.639 272.263C324.193 272.548 323.741 272.826 323.284 273.094C322.828 273.369 322.366 273.631 321.903 273.885C321.436 274.143 320.97 274.395 320.497 274.632L316.908 276.428L316.312 272.244C315.944 269.845 315.469 267.465 314.901 265.106C314.328 262.75 313.656 260.414 312.889 258.112C311.347 253.51 309.421 249.045 307.132 244.764L305.852 242.445L307.81 240.815C308.474 240.252 309.088 239.632 309.641 238.965C310.197 238.301 310.693 237.583 311.126 236.828C311.551 236.074 311.92 235.282 312.208 234.464C312.502 233.645 312.72 232.803 312.867 231.944C313.131 230.37 313.153 228.765 312.934 227.183C312.719 225.6 312.263 224.058 311.582 222.612C310.219 219.701 308 217.274 305.222 215.655C304.9 215.467 304.571 215.293 304.242 215.131C303.906 214.97 303.564 214.822 303.218 214.684C302.876 214.55 302.52 214.429 302.168 214.318C301.812 214.21 301.453 214.113 301.09 214.032L224.44 196.915C223.51 196.703 222.557 196.588 221.604 196.574C220.651 196.56 219.695 196.643 218.759 196.82C217.823 197.004 216.908 197.282 216.028 197.65C215.146 198.022 214.311 198.481 213.526 199.024C212.728 199.587 211.987 200.228 211.313 200.935C209.971 202.358 208.921 204.031 208.223 205.859C207.879 206.772 207.625 207.717 207.463 208.68C207.186 210.253 207.147 211.864 207.353 213.451C207.554 215.04 207.995 216.589 208.661 218.045C210.004 220.972 212.201 223.425 214.964 225.079C215.287 225.261 215.615 225.435 215.951 225.597C216.283 225.755 216.626 225.902 216.971 226.04C217.317 226.176 217.667 226.299 218.022 226.407C218.374 226.518 218.733 226.615 219.096 226.696L248.439 233.294C249.644 233.56 250.835 233.866 252.013 234.226C253.191 234.579 254.353 234.982 255.504 235.429C256.649 235.877 257.777 236.369 258.884 236.905C259.995 237.439 261.082 238.017 262.146 238.638C266.765 241.353 270.942 244.751 274.538 248.723C278.131 252.699 281.097 257.193 283.335 262.06C285.57 266.924 287.053 272.102 287.725 277.414C288.403 282.726 288.263 288.104 287.313 293.371C286.782 296.562 285.939 299.688 284.79 302.711C283.643 305.732 282.197 308.631 280.475 311.364C278.752 314.094 276.761 316.65 274.531 318.987C272.298 321.327 269.837 323.432 267.191 325.279C264.59 327.089 261.806 328.623 258.887 329.857C255.967 331.091 252.926 332.017 249.813 332.618C246.703 333.223 243.536 333.503 240.365 333.45C237.194 333.398 234.036 333.016 230.942 332.309L154.238 315.239C153.036 314.97 151.845 314.657 150.67 314.301C149.493 313.941 148.331 313.537 147.183 313.087C146.036 312.643 144.908 312.153 143.797 311.618C142.689 311.087 141.598 310.513 140.534 309.898Z" fill="#D0D0D0"/>
</g>
<path d="M1341.45 1782.32C1348.94 1784.36 1355.17 1790.56 1357.19 1798.07C1367.62 1835.58 1378.07 1873.09 1388.49 1910.61C1390.46 1917.65 1388.45 1925.69 1383.21 1930.83L1301.72 2012.33C1296.34 2017.77 1287.89 2019.59 1280.66 2017.32C1243.29 2006.9 1205.93 1996.5 1168.57 1986.09C1160.92 1984 1154.79 1977.45 1153.09 1969.72C1150.08 1958.41 1147.04 1947.1 1144.02 1935.79C1143.43 1933.45 1142.47 1931.11 1142.86 1928.65C1145 1928.34 1146.79 1929.82 1148.66 1930.61C1152.6 1932.65 1156.87 1933.87 1161.1 1935.13C1162.27 1935.35 1162.93 1936.38 1163.17 1937.47C1165.79 1947.11 1168.24 1956.8 1170.91 1966.42C1171.47 1968.49 1173.8 1968.81 1175.54 1969.31C1212.24 1979.5 1248.92 1989.77 1285.62 1999.96C1286.9 2000.41 1288.3 1999.97 1289.18 1998.95C1316.08 1972.08 1342.96 1945.18 1369.85 1918.3C1371.03 1917.32 1371.39 1915.71 1370.86 1914.29C1360.46 1877.07 1350.09 1839.84 1339.7 1802.62C1339.57 1801.93 1339.23 1801.29 1338.73 1800.79C1338.23 1800.28 1337.59 1799.95 1336.9 1799.82C1299.67 1789.43 1262.44 1779.07 1225.22 1768.68C1223.81 1768.15 1222.18 1768.47 1221.21 1769.67C1194.33 1796.56 1167.44 1823.44 1140.55 1850.33C1140.05 1850.75 1139.69 1851.32 1139.51 1851.95C1139.34 1852.59 1139.37 1853.26 1139.59 1853.88C1142.34 1863.84 1145.12 1873.78 1147.89 1883.72C1149.54 1889.23 1152.79 1894.77 1158.22 1897.24C1162.95 1899.48 1168.94 1898.36 1172.57 1894.6C1199.33 1867.91 1226.01 1841.13 1252.77 1814.45C1253.87 1813.17 1255.98 1813.32 1257.02 1814.58C1260.09 1817.62 1263.17 1820.65 1266.17 1823.75C1267.48 1825 1267.08 1827.15 1265.72 1828.19C1238.81 1855.07 1211.96 1882.02 1185.02 1908.86C1177.86 1916.03 1167.11 1920.89 1156.97 1917.76C1144.58 1913.83 1135.38 1902.84 1131.36 1890.71C1127.87 1880.24 1125.31 1869.45 1122.19 1858.86C1119.89 1851.62 1121.75 1843.17 1127.19 1837.8L1208.68 1756.3C1213.93 1750.95 1222.18 1748.98 1229.33 1751.12C1266.7 1761.53 1304.07 1771.92 1341.45 1782.32Z" fill="#838383"/>
<path d="M1305.84 1859.61C1316.92 1869.36 1327.81 1880.79 1332.05 1895.3C1335.37 1906.49 1331.14 1918.77 1323.21 1926.96C1321.92 1927.84 1320.18 1927.31 1319.22 1926.19C1316.2 1923.17 1313.13 1920.19 1310.17 1917.1C1308.83 1915.87 1309.27 1913.94 1310.24 1912.65C1313.23 1907.92 1314.95 1902 1313.18 1896.5C1310.4 1888.14 1303.79 1881.81 1297.66 1875.79C1292.98 1871.59 1287.82 1867.2 1281.45 1866.05C1276.59 1865.14 1271.72 1868.25 1269.54 1872.5C1268.2 1875.78 1270.12 1879.19 1271.62 1882.05C1280.89 1897.89 1294.52 1910.87 1302.52 1927.51C1305.85 1934.37 1307.42 1942.78 1303.82 1949.87C1298.95 1959.31 1289.4 1966.86 1278.56 1967.51C1269.7 1968.11 1261.12 1964.67 1253.72 1960.07C1243.97 1953.87 1235.64 1945.64 1228.33 1936.75C1221.58 1928.26 1215.65 1918.33 1214.96 1907.26C1214.3 1897.86 1218.65 1888.6 1225.46 1882.28C1226.63 1881.23 1228.5 1881.56 1229.48 1882.71C1232.54 1885.73 1235.6 1888.77 1238.6 1891.85C1239.91 1892.98 1239.76 1894.93 1238.67 1896.14C1235.56 1900.37 1233.08 1905.61 1234.11 1911C1236.3 1921.18 1244.34 1928.67 1251.31 1935.86C1257.44 1941.47 1264.11 1947.98 1272.78 1948.89C1277.52 1949.21 1281.97 1946.25 1284.47 1942.39C1286.42 1938.96 1284.86 1934.89 1283.26 1931.66C1274.79 1915.34 1259.91 1903.31 1252.07 1886.6C1248.85 1879.86 1247.36 1871.71 1250.56 1864.67C1255.14 1854.76 1265.33 1847.02 1276.5 1847.09C1287.51 1847.05 1297.55 1852.85 1305.84 1859.61Z" fill="#838383"/>
<path d="M-8.55427 448.32C-1.05557 450.359 5.16836 456.559 7.19117 464.066C17.6176 501.582 28.0727 539.085 38.4868 576.606C40.4555 583.654 38.4539 591.686 33.2137 596.834L-48.2795 678.328C-53.6554 683.771 -62.1056 685.594 -69.3433 683.32C-106.707 672.898 -144.074 662.504 -181.433 652.086C-189.084 650.001 -195.206 643.451 -196.91 635.724C-199.921 624.408 -202.964 613.101 -205.98 601.789C-206.571 599.453 -207.526 597.108 -207.141 594.655C-204.995 594.337 -203.208 595.817 -201.343 596.607C-197.402 598.646 -193.13 599.866 -188.902 601.132C-187.732 601.351 -187.066 602.382 -186.826 603.473C-184.212 613.11 -181.755 622.795 -179.088 632.42C-178.534 634.488 -176.201 634.81 -174.456 635.306C-137.758 645.501 -101.082 655.775 -64.3846 665.961C-63.0981 666.412 -61.6959 665.97 -60.815 664.948C-33.9157 638.082 -7.04042 611.182 19.8466 584.303C21.0254 583.323 21.3933 581.706 20.859 580.288C10.4579 543.069 0.089756 505.842 -10.3038 468.624C-10.4327 467.928 -10.7691 467.287 -11.2689 466.786C-11.7687 466.284 -12.4084 465.946 -13.104 465.815C-50.3263 455.426 -87.5616 445.074 -124.776 434.676C-126.191 434.146 -127.82 434.469 -128.788 435.669C-155.666 462.556 -182.558 489.439 -209.445 516.326C-209.951 516.749 -210.314 517.317 -210.488 517.953C-210.661 518.589 -210.635 519.263 -210.413 519.883C-207.663 529.839 -204.879 539.777 -202.112 549.724C-200.459 555.232 -197.207 560.775 -191.784 563.243C-187.054 565.476 -181.06 564.364 -177.43 560.601C-150.671 533.908 -123.99 507.128 -97.2269 480.447C-96.1275 479.174 -94.0218 479.319 -92.9799 480.584C-89.907 483.616 -86.83 486.652 -83.827 489.754C-82.5241 490.999 -82.9248 493.153 -84.2777 494.191C-111.185 521.074 -138.036 548.015 -164.984 574.857C-172.144 582.033 -182.888 586.888 -193.026 583.765C-205.425 579.828 -214.623 568.835 -218.635 556.708C-222.134 546.236 -224.686 535.455 -227.812 524.858C-230.112 517.622 -228.252 509.167 -222.813 503.796L-141.319 422.302C-136.067 416.95 -127.824 414.977 -120.673 417.123C-83.3029 427.53 -45.9265 437.923 -8.55427 448.32Z" fill="#838383"/>
<path d="M-44.1649 525.611C-33.0755 535.36 -22.1949 546.787 -17.952 561.295C-14.6263 572.487 -18.8569 584.767 -26.7933 592.959C-28.0839 593.844 -29.821 593.307 -30.7848 592.194C-33.8036 589.167 -36.8724 586.189 -39.8337 583.104C-41.1653 581.871 -40.7283 579.944 -39.7556 578.649C-36.7655 573.922 -35.0483 567.996 -36.819 562.503C-39.6028 554.136 -46.2076 547.812 -52.3452 541.791C-57.019 537.589 -62.1757 533.201 -68.5455 532.05C-73.409 531.141 -78.2766 534.255 -80.4604 538.499C-81.7968 541.778 -79.8775 545.187 -78.3842 548.053C-69.112 563.893 -55.4798 576.871 -47.4851 593.509C-44.1478 600.37 -42.5846 608.784 -46.1781 615.868C-51.0506 625.306 -60.6043 632.859 -71.4396 633.512C-80.2953 634.111 -88.8811 630.671 -96.2757 626.071C-106.033 619.872 -114.358 611.637 -121.67 602.745C-128.42 594.258 -134.347 584.328 -135.037 573.256C-135.7 563.86 -131.352 554.599 -124.541 548.276C-123.374 547.225 -121.496 547.556 -120.525 548.71C-117.456 551.729 -114.404 554.765 -111.396 557.846C-110.094 558.975 -110.243 560.927 -111.327 562.136C-114.441 566.374 -116.918 571.614 -115.892 577C-113.697 587.178 -105.66 594.668 -98.6876 601.864C-92.5582 607.472 -85.8911 613.982 -77.2224 614.892C-72.4829 615.207 -68.0324 612.254 -65.5308 608.386C-63.582 604.958 -65.1417 600.892 -66.7378 597.658C-75.2119 581.342 -90.0888 569.31 -97.93 552.601C-101.152 545.857 -102.641 537.708 -99.4363 530.674C-94.8618 520.756 -84.6752 513.018 -73.5001 513.092C-62.4949 513.055 -52.4528 518.846 -44.1649 525.611Z" fill="#838383"/>
</g>
<defs>
<clipPath id="clip0_202_3">
<rect width="2068" height="2068" fill="white"/>
</clipPath>
<clipPath id="clip1_202_3">
<rect width="258" height="296" fill="white" transform="translate(470.025 912.452) rotate(45)"/>
</clipPath>
<clipPath id="clip2_202_3">
<rect width="258" height="296" fill="white" transform="translate(1801.02 318.452) rotate(45)"/>
</clipPath>
<clipPath id="clip3_202_3">
<rect width="259" height="311" fill="white" transform="translate(1599.27 1379.85) rotate(45)"/>
</clipPath>
<clipPath id="clip4_202_3">
<rect width="259" height="311" fill="white" transform="translate(249.274 45.8496) rotate(45)"/>
</clipPath>
</defs>
</svg>
