<svg width="100" height="100" viewBox="0 0 100 100" fill="none" xmlns="http://www.w3.org/2000/svg">
<g clip-path="url(#clip0_212_11)">
<path d="M83 66.5714C84.7875 66.5714 86.25 65.1571 86.25 63.4286V0.571428C86.25 -1.15714 84.7875 -2.57143 83 -2.57143H18C16.2125 -2.57143 14.75 -1.15714 14.75 0.571428V63.4286C14.75 65.1571 16.2125 66.5714 18 66.5714H83ZM96 63.4286C96 70.3625 90.1703 76 83 76H18C10.8297 76 5 70.3625 5 63.4286V0.571428C5 -6.3625 10.8297 -12 18 -12H83C90.1703 -12 96 -6.3625 96 0.571428V63.4286ZM50.5 50.8571C49.1391 50.8571 47.8594 50.3071 46.925 49.3446L25.8 27.3446C24.4797 25.9696 24.1344 23.9661 24.9062 22.2571C25.6781 20.5482 27.4453 19.4286 29.375 19.4286H71.625C73.5547 19.4286 75.3219 20.5482 76.0938 22.2571C76.8656 23.9661 76.5203 25.9696 75.2 27.3446L54.075 49.3446C53.1609 50.3071 51.8609 50.8571 50.5 50.8571Z" fill="#6B0DAC"/>
</g>
<defs>
<clipPath id="clip0_212_11">
<rect width="100" height="100" fill="white"/>
</clipPath>
</defs>
</svg>
