<svg width="2307" height="2625" viewBox="0 0 2307 2625" fill="none" xmlns="http://www.w3.org/2000/svg">
<path d="M1798.56 1073.47V1189.58H1914.68V1073.47H1972.73V1189.58H2088.84V1247.63H1972.73V1363.74H2088.84V1421.79H1972.73V1537.91H1914.68V1421.79H1798.56V1537.91H1740.51V1421.79H1624.4V1363.74H1740.51V1247.63H1624.4V1189.58H1740.51V1073.47H1798.56ZM1914.68 1247.63H1798.56V1363.74H1914.68V1247.63Z" fill="white"/>
<path d="M1165.74 490.339C1468.59 490.339 1733 654.813 1874.63 899.291L1873.25 896.938L1516.92 1102.1C1446.72 983.242 1318.03 903.022 1170.38 901.367L1165.73 901.342C940.599 901.342 758.081 1083.86 758.081 1308.99C758.007 1379.95 776.545 1449.69 811.845 1511.24C882.112 1633.91 1014.21 1716.65 1165.74 1716.65C1318.21 1716.65 1451.06 1632.86 1520.96 1508.88L1519.26 1511.86L1875.05 1717.97C1734.98 1960.38 1474.18 2124.34 1174.86 2127.61L1165.74 2127.66C861.93 2127.66 596.77 1962.17 455.495 1716.4C386.529 1596.42 347.07 1457.32 347.07 1308.99C347.07 856.867 713.588 490.331 1165.73 490.331L1165.74 490.339Z" fill="white"/>
<path d="M75.0228 670.726L532 399.5L1139.25 58.2228C1152.74 50.6412 1169.22 50.7037 1182.66 58.3873L2232.35 658.828C2246.05 666.665 2254.5 681.238 2254.5 697.021V1926.51C2254.5 1942.28 2246.06 1956.84 2232.39 1964.68L1182.92 2566.43C1169.35 2574.21 1152.66 2574.2 1139.1 2566.4L74.5846 1954.2C60.9239 1946.34 52.5077 1931.78 52.5203 1916.02L53.4801 708.528C53.4924 693.01 61.6782 678.646 75.0228 670.726Z" stroke="white" stroke-width="104"/>
</svg>
