<svg width="42" height="1075" viewBox="0 0 42 1075" fill="none" xmlns="http://www.w3.org/2000/svg">
<g clip-path="url(#clip0_203_420)">
<path d="M42 125.753C42 55.6741 10.391 51.3915 10.391 0H-27V540H10.391C10.391 466.806 42 482.552 42 400.231C42 324.701 10.391 315.797 10.391 251.507C10.391 202.451 42 195.833 42 125.753Z" fill="#6B0DAC"/>
<path d="M42 664.753C42 594.674 10.391 590.391 10.391 539H-27V1079H10.391C10.391 1005.81 42 1021.55 42 939.231C42 863.701 10.391 854.797 10.391 790.507C10.391 741.451 42 734.833 42 664.753Z" fill="#6B0DAC"/>
</g>
<defs>
<clipPath id="clip0_203_420">
<rect width="42" height="1075" fill="white"/>
</clipPath>
</defs>
</svg>
