<svg width="42" height="1075" viewBox="0 0 42 1075" fill="none" xmlns="http://www.w3.org/2000/svg">
<path d="M42 144.753C42 74.6741 10.391 70.3915 10.391 19H-27V559H10.391C10.391 485.806 42 501.552 42 419.231C42 343.701 10.391 334.797 10.391 270.507C10.391 221.451 42 214.833 42 144.753Z" fill="#FF8A8A"/>
<path d="M42 683.753C42 613.674 10.391 609.391 10.391 558H-27V1098H10.391C10.391 1024.81 42 1040.55 42 958.231C42 882.701 10.391 873.797 10.391 809.507C10.391 760.451 42 753.833 42 683.753Z" fill="#FF8A8A"/>
<path d="M42 109.753C42 39.6741 10.391 35.3915 10.391 -16H-27V524H10.391C10.391 450.806 42 466.552 42 384.231C42 308.701 10.391 299.797 10.391 235.507C10.391 186.451 42 179.833 42 109.753Z" fill="#CA88F8" fill-opacity="0.42"/>
<path d="M42 648.753C42 578.674 10.391 574.391 10.391 523H-27V1063H10.391C10.391 989.806 42 1005.55 42 923.231C42 847.701 10.391 838.797 10.391 774.507C10.391 725.451 42 718.833 42 648.753Z" fill="#CA88F8" fill-opacity="0.42"/>
<path d="M42 125.753C42 55.6741 10.391 51.3915 10.391 0H-27V540H10.391C10.391 466.806 42 482.552 42 400.231C42 324.701 10.391 315.797 10.391 251.507C10.391 202.451 42 195.833 42 125.753Z" fill="#6B0DAC"/>
<path d="M42 664.753C42 594.674 10.391 590.391 10.391 539H-27V1079H10.391C10.391 1005.81 42 1021.55 42 939.231C42 863.701 10.391 854.797 10.391 790.507C10.391 741.451 42 734.833 42 664.753Z" fill="#6B0DAC"/>
</svg>
