<svg width="38" height="1440" viewBox="0 0 38 1440" fill="none" xmlns="http://www.w3.org/2000/svg">
<path d="M38 144.753C38 74.6741 6.39103 70.3915 6.39103 19H-11V559H6.39103C6.39103 485.806 38 501.552 38 419.231C38 343.701 6.39103 334.797 6.39103 270.507C6.39103 221.451 38 214.833 38 144.753Z" fill="#FF8A8A"/>
<path d="M38 683.753C38 613.674 6.39103 609.391 6.39103 558H-11V1098H6.39103C6.39103 1024.81 38 1040.55 38 958.231C38 882.701 6.39103 873.797 6.39103 809.507C6.39103 760.451 38 753.833 38 683.753Z" fill="#FF8A8A"/>
<path d="M38 109.753C38 39.6741 6.39103 35.3915 6.39103 -16H-31V524H6.39103C6.39103 450.806 38 466.552 38 384.231C38 308.701 6.39103 299.797 6.39103 235.507C6.39103 186.451 38 179.833 38 109.753Z" fill="#CA88F8" fill-opacity="0.42"/>
<path d="M38 648.753C38 578.674 6.39103 574.391 6.39103 523H-31V1063H6.39103C6.39103 989.806 38 1005.55 38 923.231C38 847.701 6.39103 838.797 6.39103 774.507C6.39103 725.451 38 718.833 38 648.753Z" fill="#CA88F8" fill-opacity="0.42"/>
<path d="M38 1186.75C38 1116.67 6.39103 1112.39 6.39103 1061L-11 960V1601H6.39103C6.39103 1527.81 38 1543.55 38 1461.23C38 1385.7 6.39103 1376.8 6.39103 1312.51C6.39103 1263.45 38 1256.83 38 1186.75Z" fill="#CA88F8" fill-opacity="0.42"/>
<path d="M38 1725.75C38 1655.67 6.39103 1651.39 6.39103 1600H-11V2140H6.39103C6.39103 2066.81 38 2082.55 38 2000.23C38 1924.7 6.39103 1915.8 6.39103 1851.51C6.39103 1802.45 38 1795.83 38 1725.75Z" fill="#CA88F8" fill-opacity="0.42"/>
<path d="M38 125.753C38 55.6741 6.39103 51.3915 6.39103 0H-31V540H6.39103C6.39103 466.806 38 482.552 38 400.231C38 324.701 6.39103 315.797 6.39103 251.507C6.39103 202.451 38 195.833 38 125.753Z" fill="#6B0DAC"/>
<path d="M38 664.753C38 594.674 6.39103 590.391 6.39103 539H-31V1079H6.39103C6.39103 1005.81 38 1021.55 38 939.231C38 863.701 6.39103 854.797 6.39103 790.507C6.39103 741.451 38 734.833 38 664.753Z" fill="#6B0DAC"/>
<path d="M38 1221.75C38 1151.67 6.39103 1147.39 6.39103 1096H-11V1636H6.39103C6.39103 1562.81 38 1578.55 38 1496.23C38 1420.7 6.39103 1411.8 6.39103 1347.51C6.39103 1298.45 38 1291.83 38 1221.75Z" fill="#FF8A8A"/>
<path d="M38 1760.75C38 1690.67 6.39103 1686.39 6.39103 1635H-11V2175H6.39103C6.39103 2101.81 38 2117.55 38 2035.23C38 1959.7 6.39103 1950.8 6.39103 1886.51C6.39103 1837.45 38 1830.83 38 1760.75Z" fill="#FF8A8A"/>
<path d="M38 1202.75C38 1132.67 6.39103 1128.39 6.39103 1077H-31V1617H6.39103C6.39103 1543.81 38 1559.55 38 1477.23C38 1401.7 6.39103 1392.8 6.39103 1328.51C6.39103 1279.45 38 1272.83 38 1202.75Z" fill="#6B0DAC"/>
<path d="M38 1741.75C38 1671.67 6.39103 1667.39 6.39103 1616H-31V2156H6.39103C6.39103 2082.81 38 2098.55 38 2016.23C38 1940.7 6.39103 1931.8 6.39103 1867.51C6.39103 1818.45 38 1811.83 38 1741.75Z" fill="#6B0DAC"/>
</svg>
